<svg width="133" height="26" viewBox="0 0 133 26" fill="none" xmlns="http://www.w3.org/2000/svg">
<path d="M2.252 17.532C1.54267 17.532 1.02933 17.42 0.712 17.196C0.394667 16.972 0.208 16.7293 0.152 16.468C0.0773333 16.2067 0.04 16.0107 0.04 15.88C0.0586666 15.6373 0.170667 15.4413 0.376 15.292C0.562667 15.1427 0.777333 15.068 1.02 15.068C1.16933 15.068 1.3 15.1053 1.412 15.18C1.524 15.236 1.58 15.3667 1.58 15.572C1.58 15.7587 1.51467 15.8893 1.384 15.964C1.25333 16.0387 1.11333 16.076 0.964 16.076C0.833333 16.076 0.721333 16.0573 0.628 16.02C0.516 15.9827 0.46 15.964 0.46 15.964C0.46 16.468 0.646667 16.804 1.02 16.972C1.39333 17.14 1.81333 17.224 2.28 17.224C3.008 17.224 3.75467 17.0187 4.52 16.608C5.304 16.1973 6.10667 15.656 6.928 14.984C7.74933 14.2933 8.58933 13.528 9.448 12.688C10.3253 11.8293 11.2213 10.9707 12.136 10.112C13.1253 9.17867 14.1053 8.25467 15.076 7.34C16.0653 6.40667 17.0173 5.56667 17.932 4.82C18.8467 4.07333 19.696 3.476 20.48 3.028C21.264 2.58 21.964 2.356 22.58 2.356C22.7853 2.356 22.8693 2.39333 22.832 2.468C22.8133 2.54267 22.664 2.59867 22.384 2.636C21.7307 2.748 21.012 3.04667 20.228 3.532C19.4627 3.99867 18.6507 4.60533 17.792 5.352C16.9333 6.08 16.0467 6.88267 15.132 7.76C14.236 8.61867 13.3213 9.48667 12.388 10.364C11.5293 11.1853 10.6613 12.016 9.784 12.856C8.92533 13.696 8.06667 14.4707 7.208 15.18C6.368 15.8893 5.528 16.4587 4.688 16.888C3.86667 17.3173 3.05467 17.532 2.252 17.532ZM10.876 16.272C10.764 16.3093 10.6333 16.3373 10.484 16.356C10.3533 16.356 10.316 16.3093 10.372 16.216C10.428 16.1227 10.5307 15.964 10.68 15.74C10.848 15.4973 10.9973 15.208 11.128 14.872C11.2773 14.536 11.352 14.1907 11.352 13.836C11.352 13.3693 11.268 12.8373 11.1 12.24C10.9507 11.624 10.6987 11.0267 10.344 10.448C10.008 9.86933 9.55067 9.39333 8.972 9.02C8.412 8.628 7.72133 8.432 6.9 8.432C6.35867 8.432 5.892 8.56267 5.5 8.824C5.12667 9.08533 4.83733 9.40267 4.632 9.776C4.44533 10.1307 4.352 10.476 4.352 10.812C4.352 11.54 4.56667 12.2307 4.996 12.884C5.444 13.5373 6.116 14.0693 7.012 14.48C7.908 14.872 9.01867 15.068 10.344 15.068C11.8 15.068 13.1067 14.816 14.264 14.312C15.4213 13.808 16.392 13.1547 17.176 12.352C17.96 11.5493 18.5107 10.7093 18.828 9.832C18.9213 9.552 18.996 9.45867 19.052 9.552C19.1267 9.62667 19.164 9.70133 19.164 9.776C19.164 10.4107 18.9493 11.0547 18.52 11.708C18.0907 12.3613 17.484 12.968 16.7 13.528C15.916 14.0693 15.0107 14.508 13.984 14.844C12.9573 15.18 11.8373 15.348 10.624 15.348C9.37333 15.348 8.216 15.1707 7.152 14.816C6.10667 14.4613 5.25733 13.9387 4.604 13.248C3.96933 12.5573 3.652 11.7267 3.652 10.756C3.652 10.1027 3.92267 9.50533 4.464 8.964C5.024 8.404 5.836 8.124 6.9 8.124C7.796 8.124 8.54267 8.32933 9.14 8.74C9.756 9.15067 10.2507 9.65467 10.624 10.252C10.9973 10.8493 11.268 11.4467 11.436 12.044C11.604 12.6413 11.688 13.136 11.688 13.528C11.688 13.9573 11.632 14.3867 11.52 14.816C11.408 15.2267 11.2867 15.572 11.156 15.852C11.044 16.1133 10.9507 16.2533 10.876 16.272ZM9.224 17.476C9.24267 17.4573 9.42933 17.2333 9.784 16.804C10.1387 16.3747 10.6053 15.8053 11.184 15.096C11.7627 14.3867 12.416 13.5933 13.144 12.716C13.872 11.82 14.628 10.9053 15.412 9.972C16.196 9.03867 16.9613 8.13333 17.708 7.256C18.4733 6.36 19.1733 5.55733 19.808 4.848C20.4613 4.12 21.0027 3.54133 21.432 3.112C21.88 2.68267 22.1693 2.45867 22.3 2.44C22.3933 2.40267 22.4773 2.40267 22.552 2.44C22.6267 2.47733 22.608 2.54267 22.496 2.636C22.4213 2.692 22.16 3 21.712 3.56C21.264 4.10133 20.6947 4.82 20.004 5.716C19.332 6.59333 18.5947 7.564 17.792 8.628C17.008 9.67333 16.224 10.7187 15.44 11.764C14.656 12.7907 13.9373 13.7427 13.284 14.62C12.6493 15.4787 12.1267 16.1693 11.716 16.692C11.324 17.2147 11.1187 17.476 11.1 17.476C11.0253 17.4573 10.8947 17.4387 10.708 17.42C10.54 17.4013 10.372 17.392 10.204 17.392C10.036 17.392 9.84 17.4013 9.616 17.42C9.41067 17.4573 9.28 17.476 9.224 17.476ZM18.8984 13.332C18.8238 13.4067 18.7678 13.416 18.7304 13.36C18.6931 13.2853 18.6838 13.2107 18.7024 13.136C19.0198 12.8187 19.3278 12.4453 19.6264 12.016C19.9438 11.5867 20.2051 11.1853 20.4104 10.812C20.6344 10.4387 20.7651 10.1867 20.8024 10.056C20.8398 10.056 20.8958 10.028 20.9704 9.972C21.0638 9.916 21.1478 9.89733 21.2224 9.916C21.2038 10.0467 21.1758 10.168 21.1384 10.28C21.1198 10.392 21.1851 10.4947 21.3344 10.588C21.4838 10.6813 21.7918 10.7747 22.2584 10.868C22.7251 10.9613 23.4344 11.064 24.3864 11.176C24.4798 11.1947 24.5451 11.232 24.5824 11.288C24.6384 11.3253 24.6104 11.3907 24.4984 11.484C24.1438 11.764 23.7518 12.1187 23.3224 12.548C22.8931 12.9773 22.4731 13.4347 22.0624 13.92C21.6704 14.3867 21.3438 14.844 21.0824 15.292C20.8398 15.74 20.7184 16.1133 20.7184 16.412C20.7184 16.748 20.8678 16.916 21.1664 16.916C21.5398 16.916 21.9598 16.7667 22.4264 16.468C22.9118 16.1693 23.3971 15.8053 23.8824 15.376C24.3678 14.928 24.8158 14.48 25.2264 14.032C25.6558 13.5653 26.0104 13.1827 26.2904 12.884L26.5144 13.052C26.2531 13.3133 25.9171 13.6773 25.5064 14.144C25.0958 14.6107 24.6291 15.0867 24.1064 15.572C23.6024 16.0387 23.0611 16.44 22.4824 16.776C21.9038 17.0933 21.3064 17.252 20.6904 17.252C20.3358 17.252 20.0184 17.168 19.7384 17C19.4584 16.8507 19.3184 16.5707 19.3184 16.16C19.3184 15.768 19.4864 15.3573 19.8224 14.928C20.1584 14.4987 20.5784 14.0693 21.0824 13.64C21.5864 13.192 22.1091 12.772 22.6504 12.38C23.2104 11.9693 23.7051 11.596 24.1344 11.26L24.3304 11.512C24.1438 11.4373 23.8171 11.372 23.3504 11.316C22.8838 11.2413 22.3984 11.148 21.8944 11.036C21.3904 10.9053 20.9518 10.7373 20.5784 10.532C20.2238 10.3267 20.0464 10.0467 20.0464 9.692C20.0464 9.50533 20.1211 9.28133 20.2704 9.02C20.4384 8.74 20.6624 8.6 20.9424 8.6C21.2038 8.6 21.3811 8.656 21.4744 8.768C21.5678 8.86133 21.6144 8.992 21.6144 9.16C21.6144 9.272 21.5211 9.50533 21.3344 9.86C21.1478 10.196 20.9144 10.5973 20.6344 11.064C20.3544 11.512 20.0558 11.9413 19.7384 12.352C19.4398 12.7627 19.1598 13.0893 18.8984 13.332ZM31.0979 9.86C32.0312 9.86 32.4979 10.308 32.4979 11.204C32.4979 11.8947 32.3392 12.604 32.0219 13.332C31.7046 14.0413 31.2752 14.6947 30.7339 15.292C30.1926 15.8707 29.6046 16.3467 28.9699 16.72C28.3352 17.0747 27.6912 17.252 27.0379 17.252C26.5339 17.252 26.1139 17.1307 25.7779 16.888C25.4232 16.6267 25.2459 16.2067 25.2459 15.628C25.2459 15.0867 25.4046 14.4893 25.7219 13.836C26.0392 13.164 26.4686 12.5293 27.0099 11.932C27.5699 11.3347 28.1952 10.84 28.8859 10.448C29.5952 10.056 30.3326 9.86 31.0979 9.86ZM31.4059 10.252C31.0886 10.252 30.7152 10.392 30.2859 10.672C29.8566 10.952 29.4179 11.316 28.9699 11.764C28.5219 12.212 28.1019 12.6973 27.7099 13.22C27.3366 13.724 27.0286 14.2187 26.7859 14.704C26.5619 15.1893 26.4499 15.6 26.4499 15.936C26.4499 16.3093 26.5526 16.5707 26.7579 16.72C26.9632 16.8507 27.1966 16.916 27.4579 16.916C27.8872 16.916 28.3726 16.7387 28.9139 16.384C29.4552 16.0107 29.9779 15.544 30.4819 14.984C30.9859 14.424 31.3966 13.836 31.7139 13.22C32.0499 12.5853 32.2179 12.0067 32.2179 11.484C32.2179 10.9987 32.1339 10.672 31.9659 10.504C31.7979 10.336 31.6112 10.252 31.4059 10.252ZM31.9099 13.136C32.0032 13.136 32.0406 13.1733 32.0219 13.248C32.0219 13.304 31.9752 13.332 31.8819 13.332C31.8072 13.332 31.6952 13.4347 31.5459 13.64C31.4152 13.8267 31.2939 14.0227 31.1819 14.228C31.0699 14.4333 31.0139 14.5453 31.0139 14.564C31.0139 14.9933 31.1726 15.208 31.4899 15.208C31.7886 15.208 32.1246 15.068 32.4979 14.788C32.8899 14.508 33.2632 14.1907 33.6179 13.836C33.9912 13.4627 34.2899 13.136 34.5139 12.856L34.7379 13.052C34.4952 13.332 34.1872 13.668 33.8139 14.06C33.4406 14.4333 33.0486 14.7693 32.6379 15.068C32.2272 15.348 31.8446 15.488 31.4899 15.488C31.1912 15.488 30.9859 15.4227 30.8739 15.292C30.7619 15.1613 30.7059 14.928 30.7059 14.592C30.7059 14.144 30.8552 13.7893 31.1539 13.528C31.4712 13.2667 31.7232 13.136 31.9099 13.136ZM44.7604 17.252C44.3497 17.252 44.023 17.168 43.7804 17C43.5377 16.832 43.4164 16.6173 43.4164 16.356C43.4164 16.02 43.547 15.6467 43.8084 15.236C44.0697 14.8067 44.387 14.3587 44.7604 13.892C45.1524 13.4253 45.535 12.9773 45.9084 12.548C46.3004 12.1 46.627 11.6987 46.8884 11.344C47.1497 10.9893 47.2804 10.7 47.2804 10.476C47.2804 10.3267 47.243 10.224 47.1684 10.168C47.0937 10.112 46.963 10.084 46.7764 10.084C46.4964 10.084 46.123 10.2333 45.6564 10.532C45.2084 10.812 44.7044 11.204 44.1444 11.708C43.603 12.1933 43.043 12.744 42.4644 13.36C41.9044 13.9573 41.363 14.5733 40.8404 15.208C40.3177 15.8427 39.8697 16.44 39.4964 17C39.2724 16.9253 39.0204 16.8973 38.7404 16.916C38.4604 16.9347 38.1617 16.972 37.8444 17.028C38.2737 16.4867 38.759 15.8893 39.3004 15.236C39.8604 14.564 40.3924 13.9107 40.8964 13.276C41.4004 12.6413 41.8204 12.072 42.1564 11.568C42.4924 11.0453 42.6604 10.6627 42.6604 10.42C42.6604 10.2893 42.6044 10.2053 42.4924 10.168C42.399 10.112 42.259 10.084 42.0724 10.084C41.6804 10.084 41.1764 10.3173 40.5604 10.784C39.9444 11.2507 39.291 11.848 38.6004 12.576C37.9097 13.2853 37.2284 14.0413 36.5564 14.844C35.903 15.628 35.3244 16.3467 34.8204 17C34.6337 16.944 34.4097 16.916 34.1484 16.916C33.887 16.8973 33.5697 16.9347 33.1964 17.028C33.887 16.0013 34.5684 15.0307 35.2404 14.116C35.931 13.1827 36.5004 12.38 36.9484 11.708C37.415 11.036 37.6484 10.588 37.6484 10.364C37.6484 10.308 37.6297 10.2707 37.5924 10.252C37.5737 10.2147 37.5364 10.196 37.4804 10.196C37.2937 10.196 37.0324 10.3733 36.6964 10.728C36.379 11.0827 36.043 11.484 35.6884 11.932C35.3337 12.38 35.0164 12.7627 34.7364 13.08L34.4844 12.912C34.671 12.7067 34.895 12.436 35.1564 12.1C35.4177 11.7453 35.6977 11.4 35.9964 11.064C36.3137 10.7093 36.631 10.4107 36.9484 10.168C37.2657 9.92533 37.5737 9.804 37.8724 9.804C38.0964 9.804 38.283 9.86933 38.4324 10C38.6004 10.112 38.6844 10.2613 38.6844 10.448C38.6844 10.6907 38.6097 10.9613 38.4604 11.26C38.311 11.54 38.1057 11.8667 37.8444 12.24C37.583 12.5947 37.2844 12.9867 36.9484 13.416C36.631 13.8453 36.295 14.3213 35.9404 14.844L35.9964 14.956C36.3697 14.564 36.7524 14.1347 37.1444 13.668C37.555 13.2013 37.975 12.744 38.4044 12.296C38.8337 11.848 39.263 11.4373 39.6924 11.064C40.1217 10.6907 40.5604 10.392 41.0084 10.168C41.4564 9.944 41.895 9.832 42.3244 9.832C42.7724 9.832 43.0804 9.944 43.2484 10.168C43.4164 10.392 43.5004 10.6067 43.5004 10.812C43.5004 11.1107 43.4444 11.4093 43.3324 11.708C43.2204 12.0067 43.0804 12.296 42.9124 12.576C42.7444 12.8373 42.5764 13.08 42.4084 13.304C42.2404 13.5093 42.091 13.6773 41.9604 13.808C41.8297 13.9387 41.755 14.0227 41.7364 14.06L41.5684 13.92C41.699 13.7893 41.9044 13.5653 42.1844 13.248C42.4644 12.9307 42.791 12.5853 43.1644 12.212C43.5564 11.82 43.967 11.4467 44.3964 11.092C44.8257 10.7187 45.255 10.42 45.6844 10.196C46.1137 9.95333 46.5244 9.832 46.9164 9.832C47.383 9.832 47.7004 9.95333 47.8684 10.196C48.055 10.42 48.1484 10.6253 48.1484 10.812C48.1484 11.2227 48.0177 11.68 47.7564 12.184C47.495 12.6693 47.1684 13.164 46.7764 13.668C46.3844 14.1533 45.9924 14.6107 45.6004 15.04C45.2084 15.4693 44.8817 15.8333 44.6204 16.132C44.359 16.412 44.2284 16.5893 44.2284 16.664C44.2284 16.832 44.4244 16.916 44.8164 16.916C45.3204 16.916 45.8244 16.7573 46.3284 16.44C46.851 16.1227 47.3457 15.74 47.8124 15.292C48.279 14.8253 48.699 14.368 49.0724 13.92C49.4644 13.4533 49.7817 13.0893 50.0244 12.828L50.2484 12.996C50.0244 13.2387 49.707 13.5933 49.2964 14.06C48.9044 14.5267 48.4564 15.012 47.9524 15.516C47.4484 16.0013 46.9257 16.412 46.3844 16.748C45.843 17.084 45.3017 17.252 44.7604 17.252ZM56.0376 12.1C55.9629 12.2493 55.8509 12.38 55.7016 12.492C55.5709 12.604 55.4683 12.6787 55.3936 12.716C55.3376 12.7347 55.3563 12.6787 55.4496 12.548C55.7856 12.1373 56.0003 11.7547 56.0936 11.4C56.2056 11.0453 56.2056 10.7653 56.0936 10.56C56.0003 10.336 55.8136 10.224 55.5336 10.224C55.1603 10.224 54.7216 10.3733 54.2176 10.672C53.7136 10.9707 53.1909 11.3627 52.6496 11.848C52.1269 12.3333 51.6323 12.856 51.1656 13.416C50.7176 13.9573 50.3536 14.4893 50.0736 15.012C49.7936 15.516 49.6536 15.9547 49.6536 16.328C49.6536 16.608 49.7096 16.7853 49.8216 16.86C49.9336 16.9347 50.0456 16.972 50.1576 16.972C50.5869 16.972 51.0816 16.776 51.6416 16.384C52.2203 15.9733 52.8083 15.46 53.4056 14.844C54.0029 14.228 54.5723 13.6027 55.1136 12.968C55.6549 12.3147 56.1216 11.7267 56.5136 11.204C56.9243 10.6813 57.2043 10.3267 57.3536 10.14C57.5589 10.2147 57.8016 10.2427 58.0816 10.224C58.3803 10.2053 58.6323 10.1867 58.8376 10.168C58.8003 10.224 58.6043 10.4573 58.2496 10.868C57.9136 11.2787 57.5029 11.7733 57.0176 12.352C56.5509 12.912 56.0749 13.4907 55.5896 14.088C55.1229 14.6853 54.7309 15.208 54.4136 15.656C54.0963 16.104 53.9376 16.4027 53.9376 16.552C53.9376 16.7387 53.9749 16.86 54.0496 16.916C54.1429 16.9533 54.2829 16.972 54.4696 16.972C54.6936 16.9533 55.0203 16.8507 55.4496 16.664C55.8789 16.4587 56.4296 16.0667 57.1016 15.488C57.7736 14.9093 58.5856 14.0507 59.5376 12.912C59.5376 12.912 59.5749 12.94 59.6496 12.996C59.7429 13.052 59.7896 13.08 59.7896 13.08C58.6696 14.3867 57.6336 15.4133 56.6816 16.16C55.7296 16.888 54.8616 17.252 54.0776 17.252C53.6669 17.252 53.3869 17.1867 53.2376 17.056C53.1069 16.9253 53.0416 16.7387 53.0416 16.496C53.0416 16.3093 53.1163 16.0853 53.2656 15.824C53.4336 15.544 53.6203 15.2733 53.8256 15.012C54.0309 14.7507 54.1989 14.5453 54.3296 14.396C54.3296 14.396 54.3109 14.3867 54.2736 14.368C54.2363 14.3493 54.2176 14.34 54.2176 14.34C53.7883 14.8627 53.3309 15.348 52.8456 15.796C52.3603 16.244 51.8749 16.5987 51.3896 16.86C50.9229 17.1213 50.4656 17.252 50.0176 17.252C49.5509 17.252 49.2243 17.14 49.0376 16.916C48.8509 16.6733 48.7576 16.3093 48.7576 15.824C48.7576 15.3573 48.9069 14.7973 49.2056 14.144C49.5043 13.472 49.9336 12.8187 50.4936 12.184C51.0536 11.5307 51.7256 10.9893 52.5096 10.56C53.3123 10.1307 54.2083 9.916 55.1976 9.916C55.6829 9.916 56.0189 10.0093 56.2056 10.196C56.3923 10.364 56.4763 10.5693 56.4576 10.812C56.4389 11.0547 56.3829 11.2973 56.2896 11.54C56.1963 11.7827 56.1123 11.9693 56.0376 12.1ZM69.7458 17.252C69.2231 17.252 68.7378 17.1867 68.2898 17.056C67.8418 16.944 67.6178 16.748 67.6178 16.468C67.6178 16.2813 67.7204 16.1133 67.9258 15.964C68.1498 15.8147 68.4111 15.7027 68.7098 15.628C69.0271 15.5347 69.3071 15.488 69.5498 15.488C70.3524 15.488 71.1271 15.6093 71.8738 15.852C72.6204 16.076 73.3858 16.3093 74.1698 16.552C74.9724 16.776 75.8311 16.888 76.7458 16.888C77.8658 16.888 78.9391 16.6547 79.9658 16.188C80.9924 15.7213 81.9071 15.0867 82.7098 14.284C83.5124 13.4813 84.1378 12.576 84.5858 11.568C85.0524 10.5413 85.2858 9.47733 85.2858 8.376C85.2858 7.2 85.0804 6.17333 84.6698 5.296C84.2778 4.41867 83.6431 3.73733 82.7658 3.252C81.9071 2.76667 80.7871 2.524 79.4058 2.524C78.3604 2.524 77.3431 2.73867 76.3538 3.168C75.3644 3.57867 74.4778 4.12 73.6938 4.792C72.9098 5.44533 72.2844 6.15467 71.8178 6.92C71.3511 7.68533 71.1178 8.404 71.1178 9.076C71.1178 9.43067 71.2578 9.79467 71.5378 10.168C71.8178 10.5413 72.3031 10.728 72.9938 10.728C73.6471 10.728 74.3564 10.56 75.1218 10.224C75.8871 9.86933 76.6151 9.40267 77.3058 8.824C78.0151 8.22667 78.6218 7.564 79.1258 6.836C79.6298 6.08933 79.9378 5.324 80.0498 4.54C80.0871 4.29733 80.1431 4.18533 80.2178 4.204C80.2924 4.22267 80.3298 4.33467 80.3298 4.54C80.3298 5.34267 80.1244 6.136 79.7138 6.92C79.3031 7.68533 78.7618 8.376 78.0898 8.992C77.4178 9.608 76.6711 10.1027 75.8498 10.476C75.0471 10.8493 74.2351 11.036 73.4138 11.036C72.6858 11.036 72.1071 10.9147 71.6778 10.672C71.2484 10.4293 70.9404 10.1307 70.7538 9.776C70.5671 9.40267 70.4738 9.03867 70.4738 8.684C70.4738 7.97467 70.6884 7.24667 71.1178 6.5C71.5658 5.73467 72.1818 5.03467 72.9658 4.4C73.7684 3.76533 74.7018 3.252 75.7658 2.86C76.8484 2.468 78.0151 2.272 79.2658 2.272C80.4231 2.272 81.4218 2.43067 82.2618 2.748C83.1018 3.04667 83.7924 3.46667 84.3338 4.008C84.8751 4.53067 85.2764 5.14667 85.5378 5.856C85.8178 6.54667 85.9578 7.284 85.9578 8.068C85.9578 9.37467 85.7058 10.588 85.2018 11.708C84.7164 12.8093 84.0444 13.7707 83.1858 14.592C82.3271 15.4133 81.3471 16.0573 80.2458 16.524C79.1444 16.972 77.9964 17.196 76.8018 17.196C75.9244 17.196 75.1031 17.0933 74.3378 16.888C73.5724 16.6827 72.8258 16.4867 72.0978 16.3C71.3884 16.0947 70.6324 15.992 69.8298 15.992C69.6618 15.992 69.4191 16.0013 69.1018 16.02C68.8031 16.0387 68.5324 16.0853 68.2898 16.16C68.0471 16.216 67.9258 16.3187 67.9258 16.468C67.9258 16.5987 68.0378 16.7013 68.2618 16.776C68.4858 16.8507 68.7471 16.8973 69.0458 16.916C69.3444 16.9347 69.5871 16.944 69.7738 16.944C70.6324 16.944 71.4538 16.7853 72.2378 16.468C73.0218 16.132 73.7778 15.6747 74.5058 15.096C75.2338 14.5173 75.9244 13.864 76.5778 13.136C77.2498 12.3893 77.8938 11.6053 78.5098 10.784C79.2938 9.72 80.1338 8.712 81.0298 7.76C81.9258 6.808 82.8404 5.968 83.7738 5.24C84.7071 4.49333 85.6218 3.91467 86.5178 3.504C87.4138 3.07467 88.2538 2.86 89.0378 2.86C89.2804 2.86 89.3738 2.90667 89.3178 3C89.2618 3.07467 89.1591 3.112 89.0098 3.112C88.3751 3.112 87.6938 3.32667 86.9658 3.756C86.2378 4.18533 85.4911 4.764 84.7258 5.492C83.9791 6.22 83.2604 7.02267 82.5698 7.9C81.8791 8.77733 81.2538 9.664 80.6938 10.56C80.2271 11.3067 79.6484 12.072 78.9578 12.856C78.2671 13.64 77.4644 14.368 76.5498 15.04C75.6351 15.6933 74.6084 16.2253 73.4698 16.636C72.3311 17.0467 71.0898 17.252 69.7458 17.252ZM88.4098 17.252C87.5324 17.252 86.9537 17.056 86.6737 16.664C86.3937 16.2533 86.2537 15.824 86.2537 15.376C86.2537 14.6107 86.4497 13.9013 86.8417 13.248C87.2337 12.576 87.7378 11.9787 88.3538 11.456C88.9698 10.9333 89.6044 10.532 90.2578 10.252C90.9298 9.95333 91.5271 9.804 92.0498 9.804C92.4231 9.804 92.7218 9.86 92.9458 9.972C93.1698 10.0653 93.2818 10.2707 93.2818 10.588C93.2818 10.8867 93.1044 11.204 92.7498 11.54C92.3951 11.876 91.9471 12.2027 91.4058 12.52C90.8644 12.8187 90.2951 13.0987 89.6978 13.36C89.1191 13.6027 88.5871 13.7987 88.1018 13.948C87.6164 14.0973 87.2618 14.172 87.0377 14.172C87.0377 14.172 87.0377 14.1253 87.0377 14.032C87.0377 13.92 87.0377 13.864 87.0377 13.864C87.2058 13.8827 87.4951 13.8267 87.9058 13.696C88.3351 13.5653 88.8111 13.3973 89.3338 13.192C89.8564 12.968 90.3604 12.716 90.8458 12.436C91.3498 12.156 91.7604 11.8573 92.0778 11.54C92.4138 11.2227 92.5818 10.9147 92.5818 10.616C92.5818 10.4667 92.5351 10.336 92.4418 10.224C92.3671 10.112 92.2271 10.056 92.0218 10.056C91.7231 10.056 91.3591 10.2053 90.9298 10.504C90.5191 10.784 90.0991 11.1573 89.6698 11.624C89.2404 12.0907 88.8391 12.5853 88.4658 13.108C88.0924 13.6307 87.7844 14.1347 87.5418 14.62C87.3178 15.0867 87.2058 15.4787 87.2058 15.796C87.2058 16.1693 87.3178 16.4493 87.5418 16.636C87.7658 16.8227 88.0924 16.916 88.5218 16.916C89.2684 16.916 89.9684 16.7387 90.6218 16.384C91.2938 16.0107 91.9004 15.5813 92.4418 15.096C92.9831 14.592 93.4404 14.1253 93.8138 13.696C94.1871 13.248 94.4391 12.9587 94.5698 12.828C94.5698 12.828 94.5978 12.856 94.6538 12.912C94.7284 12.968 94.7658 12.996 94.7658 12.996C94.6351 13.1453 94.3831 13.444 94.0098 13.892C93.6364 14.34 93.1698 14.8253 92.6098 15.348C92.0498 15.8707 91.4151 16.3187 90.7058 16.692C89.9964 17.0653 89.2311 17.252 88.4098 17.252ZM103.464 0.0319998C103.669 0.0693327 103.921 0.0879991 104.22 0.0879991C104.537 0.0879991 104.789 0.0693327 104.976 0.0319998L95.2319 13.612C94.9332 14.06 94.6439 14.48 94.3639 14.872C94.0839 15.264 93.8599 15.6093 93.6919 15.908C93.5052 16.188 93.4119 16.412 93.4119 16.58C93.4119 16.7107 93.4679 16.804 93.5799 16.86C93.6732 16.916 93.8132 16.944 93.9999 16.944C94.4292 16.944 94.9052 16.7947 95.4279 16.496C95.9506 16.1787 96.4639 15.7867 96.9679 15.32C97.4906 14.8533 97.9666 14.396 98.3959 13.948C98.8439 13.5 99.1986 13.136 99.4599 12.856L99.6559 13.024C99.4132 13.2853 99.0772 13.6493 98.6479 14.116C98.2186 14.5827 97.7239 15.0587 97.1639 15.544C96.6226 16.0107 96.0532 16.412 95.4559 16.748C94.8772 17.084 94.3079 17.252 93.7479 17.252C93.4492 17.252 93.1972 17.168 92.9919 17C92.7679 16.832 92.6559 16.5893 92.6559 16.272C92.6559 16.0667 92.7306 15.8053 92.8799 15.488C93.0292 15.1707 93.2159 14.844 93.4399 14.508C93.6452 14.1533 93.8506 13.836 94.0559 13.556C94.2426 13.2573 94.3919 13.0333 94.5039 12.884L103.464 0.0319998ZM98.8658 17.252C98.6044 17.252 98.3151 17.1773 97.9978 17.028C97.6618 16.8973 97.4938 16.6733 97.4938 16.356C97.4938 15.964 97.6711 15.4693 98.0258 14.872C98.3804 14.2747 98.8191 13.6587 99.3418 13.024C99.8458 12.3893 100.34 11.792 100.826 11.232C101.311 10.672 101.675 10.2333 101.918 9.916C102.123 9.93467 102.366 9.944 102.646 9.944C102.944 9.944 103.206 9.93467 103.43 9.916C103.168 10.2333 102.823 10.6347 102.394 11.12C101.983 11.6053 101.544 12.128 101.078 12.688C100.63 13.2293 100.191 13.7613 99.7618 14.284C99.3511 14.8067 99.0151 15.2733 98.7538 15.684C98.4924 16.0947 98.3618 16.3933 98.3618 16.58C98.3618 16.7107 98.4178 16.804 98.5298 16.86C98.6418 16.916 98.8284 16.944 99.0898 16.944C99.5378 16.944 100.032 16.776 100.574 16.44C101.134 16.0853 101.675 15.6653 102.198 15.18C102.72 14.6947 103.187 14.2373 103.598 13.808C104.008 13.36 104.298 13.0333 104.466 12.828L104.69 13.024C104.522 13.2107 104.232 13.5373 103.822 14.004C103.43 14.452 102.954 14.928 102.394 15.432C101.852 15.936 101.274 16.3653 100.658 16.72C100.06 17.0747 99.4631 17.252 98.8658 17.252ZM104.466 7.788C104.242 7.788 104.074 7.72267 103.962 7.592C103.85 7.44267 103.794 7.27467 103.794 7.088C103.794 6.88267 103.906 6.668 104.13 6.444C104.354 6.22 104.587 6.108 104.83 6.108C105.091 6.108 105.278 6.18267 105.39 6.332C105.502 6.46267 105.558 6.59333 105.558 6.724C105.558 7.004 105.446 7.256 105.222 7.48C104.998 7.68533 104.746 7.788 104.466 7.788ZM109.694 9.86C110.254 9.86 110.636 9.944 110.842 10.112C111.066 10.28 111.178 10.504 111.178 10.784C111.178 11.0453 111.112 11.316 110.982 11.596C110.851 11.8573 110.711 12.1 110.562 12.324C110.431 12.548 110.347 12.6973 110.31 12.772C110.198 12.9587 110.067 13.08 109.918 13.136C109.768 13.1733 109.815 13.024 110.058 12.688C110.375 12.2773 110.608 11.8853 110.758 11.512C110.907 11.12 110.916 10.8027 110.786 10.56C110.674 10.2987 110.356 10.168 109.834 10.168C109.479 10.168 109.059 10.3267 108.574 10.644C108.107 10.9427 107.622 11.344 107.118 11.848C106.614 12.3333 106.138 12.8653 105.69 13.444C105.26 14.004 104.906 14.5453 104.626 15.068C104.364 15.572 104.234 16.0013 104.234 16.356C104.234 16.6173 104.29 16.776 104.402 16.832C104.514 16.888 104.654 16.916 104.822 16.916C105.251 16.916 105.746 16.7293 106.306 16.356C106.866 15.964 107.444 15.4693 108.042 14.872C108.639 14.2747 109.208 13.6587 109.75 13.024C110.31 12.3707 110.795 11.7827 111.206 11.26C111.616 10.7187 111.906 10.3267 112.074 10.084C112.279 10.14 112.484 10.1773 112.69 10.196C112.914 10.196 113.203 10.168 113.558 10.112C112.326 11.5307 111.178 12.9773 110.114 14.452C109.05 15.9267 108.032 17.336 107.062 18.68C106.091 20.024 105.139 21.2187 104.206 22.264C103.254 23.328 102.292 24.168 101.322 24.784C100.351 25.4 99.3337 25.708 98.2697 25.708C97.915 25.708 97.635 25.6333 97.4297 25.484C97.2057 25.3347 97.0937 25.1387 97.0937 24.896C97.0937 24.4853 97.3084 24.056 97.7377 23.608C98.167 23.1787 98.727 22.7587 99.4177 22.348C100.108 21.9373 100.855 21.536 101.658 21.144C102.442 20.7707 103.207 20.4347 103.954 20.136C104.682 19.8373 105.298 19.5853 105.802 19.38C106.679 19.0253 107.556 18.5773 108.434 18.036C109.311 17.4947 110.132 16.9067 110.898 16.272C111.682 15.6373 112.372 15.0213 112.97 14.424C113.586 13.8267 114.062 13.2947 114.398 12.828C114.398 12.828 114.426 12.8653 114.482 12.94C114.556 13.0147 114.594 13.052 114.594 13.052C114.127 13.668 113.483 14.3773 112.662 15.18C111.84 15.964 110.86 16.748 109.722 17.532C108.583 18.316 107.304 19.0067 105.886 19.604C105.4 19.8093 104.803 20.0613 104.094 20.36C103.384 20.6587 102.647 20.9853 101.882 21.34C101.116 21.7133 100.398 22.096 99.7257 22.488C99.0537 22.8987 98.5124 23.3 98.1017 23.692C97.6724 24.1027 97.4577 24.4947 97.4577 24.868C97.4577 24.9987 97.523 25.1293 97.6537 25.26C97.7844 25.3907 97.9897 25.456 98.2697 25.456C98.7924 25.456 99.371 25.232 100.006 24.784C100.64 24.336 101.312 23.748 102.022 23.02C102.712 22.292 103.412 21.4987 104.122 20.64C104.812 19.8 105.475 18.96 106.11 18.12C106.744 17.28 107.314 16.524 107.818 15.852C108.34 15.18 108.76 14.676 109.078 14.34C109.078 14.34 109.059 14.3307 109.022 14.312C109.003 14.2933 108.994 14.284 108.994 14.284C108.919 14.3773 108.732 14.5827 108.434 14.9C108.154 15.1987 107.799 15.5347 107.37 15.908C106.94 16.2627 106.483 16.58 105.998 16.86C105.512 17.1213 105.036 17.252 104.57 17.252C104.084 17.252 103.758 17.112 103.59 16.832C103.403 16.552 103.31 16.2347 103.31 15.88C103.31 15.2827 103.478 14.6387 103.814 13.948C104.131 13.2573 104.579 12.604 105.158 11.988C105.755 11.372 106.436 10.868 107.202 10.476C107.986 10.0653 108.816 9.86 109.694 9.86ZM123.317 0.0319998C123.541 0.0693327 123.774 0.0973323 124.017 0.115999C124.278 0.115999 124.539 0.0879991 124.801 0.0319998C124.782 0.0506663 124.623 0.274666 124.325 0.704C124.026 1.11467 123.615 1.67467 123.093 2.384C122.589 3.07467 122.019 3.85867 121.385 4.736C120.769 5.61333 120.125 6.51867 119.453 7.452C118.799 8.36667 118.155 9.26267 117.521 10.14C116.905 10.9987 116.335 11.7827 115.813 12.492C115.309 13.2013 114.907 13.7707 114.609 14.2C114.31 14.6293 114.151 14.8533 114.133 14.872C114.133 14.872 114.142 14.8907 114.161 14.928C114.179 14.9467 114.189 14.9653 114.189 14.984C114.655 14.48 115.159 13.9293 115.701 13.332C116.242 12.7347 116.793 12.1747 117.353 11.652C117.913 11.1107 118.463 10.672 119.005 10.336C119.565 10 120.078 9.832 120.545 9.832C121.142 9.832 121.525 9.972 121.693 10.252C121.879 10.5133 121.973 10.7467 121.973 10.952C121.973 11.344 121.842 11.7733 121.581 12.24C121.319 12.7067 120.993 13.1733 120.601 13.64C120.227 14.1067 119.845 14.5453 119.453 14.956C119.079 15.348 118.762 15.6933 118.501 15.992C118.239 16.2907 118.109 16.5053 118.109 16.636C118.109 16.7853 118.221 16.8787 118.445 16.916C118.687 16.9347 118.883 16.944 119.033 16.944C119.462 16.944 119.929 16.7853 120.433 16.468C120.937 16.1507 121.431 15.7587 121.917 15.292C122.402 14.8253 122.841 14.368 123.233 13.92C123.625 13.472 123.923 13.1173 124.129 12.856L124.353 13.024C124.166 13.248 123.886 13.5933 123.513 14.06C123.139 14.508 122.691 14.984 122.169 15.488C121.665 15.9733 121.114 16.3933 120.517 16.748C119.919 17.084 119.294 17.252 118.641 17.252C118.398 17.252 118.118 17.1867 117.801 17.056C117.483 16.944 117.325 16.692 117.325 16.3C117.325 15.9827 117.446 15.6187 117.689 15.208C117.95 14.7787 118.267 14.34 118.641 13.892C119.014 13.4253 119.387 12.9773 119.761 12.548C120.153 12.1187 120.47 11.7267 120.713 11.372C120.974 10.9987 121.105 10.7 121.105 10.476C121.105 10.2333 120.927 10.112 120.573 10.112C120.125 10.112 119.583 10.3267 118.949 10.756C118.333 11.1667 117.679 11.7173 116.989 12.408C116.298 13.0987 115.607 13.8453 114.917 14.648C114.245 15.4507 113.619 16.244 113.041 17.028C112.798 16.9907 112.527 16.972 112.229 16.972C111.93 16.972 111.65 17.0093 111.389 17.084C111.389 17.084 111.557 16.8507 111.893 16.384C112.229 15.8987 112.686 15.2547 113.265 14.452C113.825 13.6307 114.459 12.716 115.169 11.708C115.878 10.6813 116.606 9.636 117.353 8.572C118.099 7.48933 118.827 6.444 119.537 5.436C120.246 4.40933 120.881 3.49467 121.441 2.692C122.019 1.87067 122.477 1.22667 122.813 0.759999C123.149 0.274666 123.317 0.0319998 123.317 0.0319998ZM129.691 4.904C129.859 4.97867 130.101 5.016 130.419 5.016C130.755 4.99733 131.016 4.96933 131.203 4.932C130.605 5.75333 129.943 6.65867 129.215 7.648C128.487 8.63733 127.749 9.62667 127.003 10.616C126.275 11.5867 125.593 12.5013 124.959 13.36C124.343 14.2 123.848 14.9093 123.474 15.488C123.101 16.0667 122.914 16.4307 122.914 16.58C122.914 16.692 122.98 16.776 123.11 16.832C123.222 16.888 123.372 16.916 123.558 16.916C123.969 16.916 124.417 16.776 124.903 16.496C125.407 16.1973 125.901 15.8333 126.387 15.404C126.891 14.956 127.348 14.508 127.758 14.06C128.188 13.5933 128.524 13.192 128.767 12.856L128.991 13.024C128.729 13.36 128.384 13.7613 127.955 14.228C127.525 14.6947 127.049 15.1613 126.527 15.628C126.004 16.0947 125.463 16.4867 124.903 16.804C124.361 17.1027 123.838 17.252 123.334 17.252C122.98 17.252 122.7 17.1773 122.494 17.028C122.27 16.8973 122.158 16.664 122.158 16.328C122.158 16.0293 122.336 15.572 122.69 14.956C123.045 14.3213 123.502 13.5933 124.062 12.772C124.641 11.9507 125.267 11.0827 125.939 10.168C126.611 9.23467 127.273 8.32 127.927 7.424C128.599 6.50933 129.187 5.66933 129.691 4.904ZM126.611 8.04C126.424 8.04 126.331 7.984 126.331 7.872C126.331 7.77867 126.424 7.732 126.611 7.732H131.931C131.987 7.732 132.043 7.74133 132.099 7.76C132.173 7.77867 132.211 7.816 132.211 7.872C132.211 7.94667 132.173 7.99333 132.099 8.012C132.043 8.03067 131.987 8.04 131.931 8.04H126.611Z" fill="black"/>
</svg>
