<svg width="19" height="16" viewBox="0 0 19 16" fill="none" xmlns="http://www.w3.org/2000/svg">
<path d="M9.8506 8.3327V12.9998C9.8506 13.0882 9.81352 13.173 9.74752 13.2355C9.68153 13.298 9.59201 13.3331 9.49868 13.3331C9.40535 13.3331 9.31584 13.298 9.24984 13.2355C9.18384 13.173 9.14677 13.0882 9.14677 12.9998V8.3327C9.14677 8.24429 9.18384 8.1595 9.24984 8.09698C9.31584 8.03447 9.40535 7.99934 9.49868 7.99934C9.59201 7.99934 9.68153 8.03447 9.74752 8.09698C9.81352 8.1595 9.8506 8.24429 9.8506 8.3327ZM18.9907 6.46505L17.7687 15.1324C17.7348 15.3722 17.6104 15.5923 17.4183 15.7518C17.2263 15.9113 16.9798 15.9995 16.7244 16H2.273C2.0176 15.9995 1.77104 15.9113 1.57902 15.7518C1.387 15.5923 1.26253 15.3722 1.22869 15.1324L0.00930913 6.46505C-0.0105935 6.32402 0.00150131 6.18059 0.0447856 6.04434C0.08807 5.90809 0.161547 5.78216 0.26031 5.67496C0.359072 5.56776 0.480846 5.48175 0.617498 5.42269C0.754149 5.36363 0.902532 5.33286 1.05274 5.33246H4.41176L9.23475 0.112863C9.26777 0.0773916 9.30838 0.0489825 9.35389 0.0295233C9.3994 0.010064 9.44875 0 9.49868 0C9.54861 0 9.59797 0.010064 9.64347 0.0295233C9.68898 0.0489825 9.72959 0.0773916 9.76262 0.112863L14.5856 5.33246H17.9446C18.0951 5.33251 18.2437 5.36301 18.3807 5.42192C18.5177 5.48082 18.6398 5.56678 18.7388 5.67402C18.8379 5.78126 18.9116 5.90732 18.955 6.04374C18.9985 6.18017 19.0106 6.32381 18.9907 6.46505ZM5.34697 5.33246H13.6504L9.49868 0.837923L5.34697 5.33246ZM18.2086 6.11252C18.1758 6.07671 18.1353 6.04803 18.0897 6.02847C18.0441 6.00891 17.9946 5.99891 17.9446 5.99918H1.05274C1.00241 5.99878 0.952572 6.0086 0.906594 6.028C0.860616 6.04739 0.819564 6.0759 0.786209 6.1116C0.752854 6.14731 0.727972 6.18937 0.713242 6.23496C0.698512 6.28055 0.694276 6.3286 0.700821 6.37588L1.9202 15.0433C1.93157 15.1238 1.97361 15.1977 2.03841 15.2509C2.10322 15.3042 2.18633 15.3332 2.27212 15.3324H16.7244C16.8102 15.3332 16.8933 15.3042 16.9581 15.2509C17.0229 15.1977 17.0649 15.1238 17.0763 15.0433L18.2965 6.37671C18.3031 6.32926 18.2986 6.28103 18.2834 6.2354C18.2682 6.18976 18.2427 6.14783 18.2086 6.11252ZM14.1791 7.99934C14.1332 7.99497 14.0867 7.99921 14.0425 8.01183C13.9982 8.02446 13.957 8.04522 13.9212 8.07292C13.8855 8.10063 13.8558 8.13474 13.8339 8.1733C13.812 8.21187 13.7984 8.25414 13.7938 8.2977L13.3011 12.9648C13.296 13.0086 13.3001 13.0529 13.3132 13.0952C13.3263 13.1375 13.3481 13.1769 13.3774 13.2112C13.4067 13.2455 13.4429 13.2739 13.4839 13.2948C13.5248 13.3157 13.5698 13.3288 13.6161 13.3331H13.6522C13.7397 13.3335 13.8243 13.303 13.8893 13.2475C13.9544 13.1921 13.9953 13.1156 14.0041 13.0331L14.4967 8.36604C14.5016 8.32216 14.4972 8.2778 14.4838 8.23554C14.4705 8.19328 14.4484 8.15395 14.4188 8.11984C14.3893 8.08573 14.3529 8.05752 14.3117 8.03683C14.2706 8.01615 14.2255 8.00341 14.1791 7.99934ZM4.81822 7.99934C4.77224 8.00372 4.72761 8.01663 4.6869 8.03735C4.64618 8.05806 4.61018 8.08617 4.58093 8.12007C4.55168 8.15396 4.52977 8.19298 4.51644 8.2349C4.50311 8.27682 4.49863 8.32081 4.50326 8.36437L4.99594 13.0314C5.00469 13.1139 5.0456 13.1904 5.11067 13.2459C5.17574 13.3014 5.26031 13.3319 5.34785 13.3314H5.38392C5.42991 13.3271 5.47453 13.3142 5.51524 13.2934C5.55596 13.2727 5.59197 13.2446 5.62121 13.2107C5.65046 13.1768 5.67237 13.1378 5.6857 13.0959C5.69903 13.054 5.70351 13.01 5.69888 12.9664L5.20621 8.29937C5.20181 8.25543 5.18825 8.21275 5.16632 8.17382C5.14438 8.13488 5.11449 8.10046 5.0784 8.07255C5.04231 8.04464 5.00072 8.0238 4.95606 8.01123C4.9114 7.99866 4.86454 7.99462 4.81822 7.99934Z" fill="black"/>
</svg>
