<svg width="193" height="54" viewBox="0 0 193 54" fill="none" xmlns="http://www.w3.org/2000/svg">
<rect width="193" height="51" rx="6" fill="black"/>
<path d="M83.768 34V32.776L87.08 32.416H87.872L91.28 32.776V34H83.768ZM83.768 19.432V18.232H91.28V19.432L87.872 19.792H87.08L83.768 19.432ZM85.52 34C85.552 33.2 85.568 32.392 85.568 31.576C85.584 30.76 85.592 29.928 85.592 29.08C85.608 28.232 85.616 27.392 85.616 26.56V25.648C85.616 24.816 85.608 23.984 85.592 23.152C85.592 22.32 85.584 21.496 85.568 20.68C85.568 19.848 85.552 19.032 85.52 18.232H89.648C89.632 19.016 89.616 19.824 89.6 20.656C89.584 21.472 89.576 22.304 89.576 23.152C89.576 24 89.576 24.864 89.576 25.744V26.488C89.576 27.336 89.576 28.184 89.576 29.032C89.576 29.88 89.584 30.72 89.6 31.552C89.616 32.368 89.632 33.184 89.648 34H85.52ZM93.56 32.008L92.696 28.432C92.584 27.984 92.424 27.624 92.216 27.352C92.008 27.064 91.752 26.856 91.448 26.728C91.144 26.6 90.784 26.536 90.368 26.536H87.56V25.264H90.2C90.568 25.264 90.896 25.224 91.184 25.144C91.472 25.064 91.728 24.92 91.952 24.712C92.192 24.504 92.416 24.208 92.624 23.824C92.832 23.44 93.04 22.936 93.248 22.312C93.6 21.288 93.944 20.464 94.28 19.84C94.632 19.2 95 18.72 95.384 18.4C95.768 18.064 96.184 17.856 96.632 17.776C97.08 17.792 97.448 17.872 97.736 18.016C98.04 18.16 98.272 18.368 98.432 18.64C98.592 18.896 98.672 19.216 98.672 19.6C98.672 20.096 98.48 20.52 98.096 20.872C97.712 21.224 97.136 21.4 96.368 21.4C95.92 21.4 95.528 21.344 95.192 21.232C94.856 21.12 94.584 21.016 94.376 20.92L95.672 20.32C95.512 20.56 95.36 20.808 95.216 21.064C95.088 21.32 94.96 21.6 94.832 21.904C94.72 22.192 94.584 22.536 94.424 22.936C94.232 23.464 94.024 23.928 93.8 24.328C93.592 24.712 93.344 25.032 93.056 25.288C92.784 25.528 92.464 25.72 92.096 25.864C91.728 25.992 91.296 26.088 90.8 26.152V25.72C92.08 25.752 93.136 25.912 93.968 26.2C94.8 26.472 95.448 26.904 95.912 27.496C96.392 28.072 96.736 28.832 96.944 29.776L97.832 33.232L95.6 32.44L99.488 32.776V34C99.04 34.128 98.608 34.216 98.192 34.264C97.776 34.312 97.376 34.336 96.992 34.336C96.352 34.336 95.8 34.272 95.336 34.144C94.888 34.032 94.512 33.808 94.208 33.472C93.92 33.136 93.704 32.648 93.56 32.008ZM100.66 39.712C100.244 39.712 99.8515 39.632 99.4835 39.472C99.1155 39.328 98.8195 39.12 98.5955 38.848C98.3715 38.576 98.2355 38.272 98.1875 37.936C98.2835 37.424 98.5155 37.04 98.8835 36.784C99.2515 36.544 99.6675 36.424 100.132 36.424C100.452 36.424 100.788 36.488 101.14 36.616C101.508 36.76 101.86 37.072 102.196 37.552L102.892 38.584L102.052 38.992L101.355 38.584C101.724 38.36 102.068 38.072 102.388 37.72C102.724 37.368 103.028 36.96 103.3 36.496C103.572 36.048 103.804 35.552 103.996 35.008L104.644 33.136L104.74 32.872L106.852 26.896L108.412 22.456H109.9L105.076 35.056C104.692 36.064 104.3 36.912 103.9 37.6C103.5 38.288 103.036 38.808 102.508 39.16C101.996 39.528 101.38 39.712 100.66 39.712ZM104.26 35.488L98.7635 22.456H102.82L105.868 30.856L105.94 31.504L104.26 35.488ZM98.1635 23.464V22.456H104.908V23.44L102.772 23.824H100.276L98.1635 23.464ZM106.372 23.464V22.456H110.812V23.464L108.796 23.8H108.364L106.372 23.464ZM112.834 34C112.85 33.632 112.858 33.152 112.858 32.56C112.874 31.968 112.882 31.352 112.882 30.712C112.898 30.056 112.906 29.472 112.906 28.96V27.496C112.906 26.984 112.898 26.408 112.882 25.768C112.882 25.112 112.874 24.488 112.858 23.896C112.858 23.288 112.85 22.808 112.834 22.456H116.746C116.73 22.808 116.714 23.288 116.698 23.896C116.698 24.488 116.69 25.112 116.674 25.768C116.674 26.408 116.674 26.984 116.674 27.496V28.96C116.674 29.472 116.674 30.056 116.674 30.712C116.69 31.352 116.698 31.968 116.698 32.56C116.714 33.152 116.73 33.632 116.746 34H112.834ZM120.178 34C120.194 33.632 120.202 33.152 120.202 32.56C120.218 31.968 120.226 31.352 120.226 30.712C120.242 30.056 120.25 29.472 120.25 28.96V27.496C120.25 26.984 120.242 26.408 120.226 25.768C120.226 25.112 120.218 24.488 120.202 23.896C120.202 23.288 120.194 22.808 120.178 22.456H124.09C124.074 22.808 124.058 23.288 124.042 23.896C124.042 24.488 124.034 25.112 124.018 25.768C124.018 26.408 124.018 26.984 124.018 27.496V28.96C124.018 29.472 124.018 30.056 124.018 30.712C124.034 31.352 124.042 31.968 124.042 32.56C124.058 33.152 124.074 33.632 124.09 34H120.178ZM111.61 34V32.944L113.914 32.464H115.69L117.946 32.944V34H111.61ZM118.954 34V32.944L121.258 32.464H123.058L125.314 32.944V34H118.954ZM111.61 23.512V22.456H114.874V23.992H113.914L111.61 23.512ZM122.05 23.992V22.456H125.314V23.512L123.058 23.992H122.05ZM114.874 23.656V22.456H122.026V23.656H114.874ZM126.704 34V32.944L128.984 32.464H130.928L133.064 32.944V34H126.704ZM134.696 34V32.944L136.664 32.464H138.608L140.888 32.944V34H134.696ZM127.928 34C127.944 33.632 127.952 33.152 127.952 32.56C127.968 31.952 127.976 31.328 127.976 30.688C127.992 30.048 128 29.472 128 28.96V27.496C128 26.984 127.992 26.408 127.976 25.768C127.976 25.128 127.968 24.504 127.952 23.896C127.952 23.288 127.944 22.808 127.928 22.456H131.624V34H127.928ZM130.592 32.848L129.512 31.744H130.04L133.544 27.64L137.024 23.56L138.008 24.712H137.576L134.096 28.792L130.592 32.848ZM136.136 34V22.456H139.664C139.648 22.808 139.632 23.288 139.616 23.896C139.6 24.504 139.592 25.128 139.592 25.768C139.592 26.408 139.592 26.984 139.592 27.496V28.96C139.592 29.472 139.592 30.048 139.592 30.688C139.592 31.328 139.6 31.952 139.616 32.56C139.632 33.152 139.648 33.632 139.664 34H136.136ZM126.704 23.512V22.456H133.064V23.512L130.952 23.992H129.008L126.704 23.512ZM134.696 23.512V22.456H140.888V23.512L138.608 23.992H136.664L134.696 23.512ZM141.911 26.776L142.007 22.456H153.959L154.055 26.776H152.663L151.727 22.48L153.143 23.656H142.799L144.239 22.48L143.303 26.776H141.911ZM144.623 34V32.944L146.927 32.464H149.039L151.343 32.944V34H144.623ZM146.015 34C146.031 33.632 146.047 33.152 146.063 32.56C146.079 31.952 146.087 31.328 146.087 30.688C146.087 30.048 146.087 29.472 146.087 28.96V27.496C146.087 26.984 146.087 26.408 146.087 25.768C146.087 25.128 146.079 24.504 146.063 23.896C146.047 23.288 146.031 22.808 146.015 22.456H149.927C149.911 22.808 149.895 23.288 149.879 23.896C149.879 24.504 149.871 25.128 149.855 25.768C149.855 26.408 149.855 26.984 149.855 27.496V28.96C149.855 29.472 149.855 30.048 149.855 30.688C149.871 31.328 149.879 31.952 149.879 32.56C149.895 33.152 149.911 33.632 149.927 34H146.015ZM158.514 34V32.872H160.914C161.698 32.872 162.298 32.664 162.714 32.248C163.13 31.832 163.338 31.192 163.338 30.328C163.338 29.4 163.146 28.752 162.762 28.384C162.378 28 161.762 27.808 160.914 27.808C160.498 27.808 160.09 27.832 159.69 27.88C159.29 27.912 158.89 27.976 158.49 28.072L158.538 27.112C159.098 26.968 159.698 26.856 160.338 26.776C160.994 26.696 161.594 26.656 162.138 26.656C163.274 26.656 164.178 26.824 164.85 27.16C165.538 27.496 166.034 27.936 166.338 28.48C166.642 29.024 166.794 29.6 166.794 30.208C166.794 30.72 166.706 31.208 166.53 31.672C166.37 32.136 166.074 32.544 165.642 32.896C165.226 33.232 164.642 33.504 163.89 33.712C163.154 33.904 162.226 34 161.106 34H158.514ZM156.498 34C156.514 33.632 156.522 33.152 156.522 32.56C156.538 31.968 156.546 31.352 156.546 30.712C156.562 30.056 156.57 29.472 156.57 28.96V27.496C156.57 26.984 156.562 26.408 156.546 25.768C156.546 25.112 156.538 24.488 156.522 23.896C156.522 23.288 156.514 22.808 156.498 22.456H160.41C160.394 22.808 160.378 23.288 160.362 23.896C160.362 24.504 160.354 25.136 160.338 25.792C160.338 26.432 160.338 27 160.338 27.496V28.96C160.338 29.472 160.338 30.056 160.338 30.712C160.354 31.352 160.362 31.968 160.362 32.56C160.378 33.152 160.394 33.632 160.41 34H156.498ZM155.274 23.512V22.456H161.634V23.512L159.378 23.992H157.578L155.274 23.512ZM155.274 34V32.944L157.578 32.464H158.538V34H155.274Z" fill="white"/>
<path d="M37 16H59.7069C60.167 16 60.622 16.0937 61.0425 16.275C61.4631 16.4564 61.8399 16.7213 62.1486 17.0528C62.4573 17.3843 62.6911 17.775 62.8349 18.1996C62.9788 18.6243 63.0294 19.0735 62.9837 19.5184L61.9957 29.1184C61.9144 29.908 61.5341 30.6401 60.9286 31.1726C60.3231 31.7051 59.5356 32 58.7189 32H42.9937C42.2321 32.0003 41.4939 31.7441 40.9049 31.275C40.3158 30.8059 39.9123 30.1529 39.763 29.4272L37 16Z" stroke="white" stroke-width="3.6" stroke-linejoin="round"/>
<path d="M36.875 15.6667L35.5588 10.2617C35.4707 9.90126 35.2678 9.58135 34.9822 9.35276C34.6966 9.12417 34.3448 9.00001 33.9825 9H32M41.75 39H45M54.75 39H58" stroke="white" stroke-width="3.6" stroke-linecap="round" stroke-linejoin="round"/>
</svg>
