<svg width="47" height="42" viewBox="0 0 47 42" fill="none" xmlns="http://www.w3.org/2000/svg">
<path d="M23.501 3.63655C20.9335 1.29801 17.5727 0.000108661 14.0847 0C12.2385 0.00190394 10.411 0.365427 8.70718 1.06965C7.00339 1.77387 5.45701 2.80489 4.15705 4.10337C-1.38765 9.61887 -1.38529 18.2458 4.16176 23.7379L21.4391 40.8516C21.8397 41.5495 22.6127 42 23.501 42C23.8658 41.9965 24.2247 41.9083 24.5488 41.7425C24.8729 41.5767 25.1533 41.3379 25.3673 41.0453L42.8403 23.7379C48.3874 18.2434 48.3874 9.61887 42.8356 4.09403C41.5363 2.79794 39.9911 1.76902 38.289 1.06642C36.5869 0.363817 34.7614 0.00139955 32.9174 0C29.4294 0.00056476 26.0688 1.2984 23.501 3.63655ZM39.5036 7.39446C43.1867 11.0614 43.1891 16.7893 39.5083 20.4375L23.501 36.2931L7.49376 20.4375C3.81301 16.7893 3.81536 11.0614 7.48905 7.4038C9.27994 5.63921 11.6222 4.66822 14.0847 4.66822C16.5472 4.66822 18.8801 5.63921 20.6568 7.39913L21.835 8.56619C22.0537 8.78313 22.3134 8.95525 22.5992 9.07268C22.8851 9.19011 23.1916 9.25055 23.501 9.25055C23.8105 9.25055 24.117 9.19011 24.4028 9.07268C24.6887 8.95525 24.9484 8.78313 25.167 8.56619L26.3452 7.39913C29.9082 3.87696 35.9454 3.8863 39.5036 7.39446Z" fill="black"/>
</svg>
