<svg width="75" height="11" viewBox="0 0 75 11" fill="none" xmlns="http://www.w3.org/2000/svg">
<path d="M6.77623 9.21217L9.6586 10.9003C10.1865 11.2096 10.8324 10.7523 10.6935 10.1739L9.92947 6.9995L12.4785 4.86081C12.9438 4.47073 12.6938 3.73094 12.0826 3.68386L8.72791 3.40812L7.41521 0.40857C7.17906 -0.13619 6.37339 -0.13619 6.13724 0.40857L4.82455 3.40139L1.46988 3.67713C0.858677 3.72421 0.608639 4.46401 1.07399 4.85408L3.62298 6.99277L2.85897 10.1672C2.72007 10.7456 3.36599 11.2029 3.89385 10.8935L6.77623 9.21217Z" fill="#E3B063"/>
<path d="M22.1296 9.21217L24.7718 10.9003C25.2556 11.2096 25.8477 10.7523 25.7204 10.1739L25.0201 6.9995L27.3566 4.86081C27.7832 4.47073 27.554 3.73094 26.9937 3.68386L23.9186 3.40812L22.7153 0.40857C22.4989 -0.13619 21.7603 -0.13619 21.5439 0.40857L20.3405 3.40139L17.2654 3.67713C16.7052 3.72421 16.476 4.46401 16.9025 4.85408L19.2391 6.99277L18.5388 10.1672C18.4114 10.7456 19.0035 11.2029 19.4874 10.8935L22.1296 9.21217Z" fill="#E3B063"/>
<path d="M37.9782 9.21217L40.6204 10.9003C41.1043 11.2096 41.6964 10.7523 41.569 10.1739L40.8687 6.9995L43.2053 4.86081C43.6318 4.47073 43.4026 3.73094 42.8424 3.68386L39.7673 3.40812L38.564 0.40857C38.3475 -0.13619 37.609 -0.13619 37.3925 0.40857L36.1892 3.40139L33.1141 3.67713C32.5538 3.72421 32.3246 4.46401 32.7512 4.85408L35.0877 6.99277L34.3874 10.1672C34.2601 10.7456 34.8522 11.2029 35.336 10.8935L37.9782 9.21217Z" fill="#E3B063"/>
<path d="M53.3319 9.21217L56.2143 10.9003C56.7421 11.2096 57.388 10.7523 57.2491 10.1739L56.4851 6.9995L59.0341 4.86081C59.4995 4.47073 59.2494 3.73094 58.6382 3.68386L55.2836 3.40812L53.9709 0.40857C53.7347 -0.13619 52.9291 -0.13619 52.6929 0.40857L51.3802 3.40139L48.0255 3.67713C47.4143 3.72421 47.1643 4.46401 47.6297 4.85408L50.1786 6.99277L49.4146 10.1672C49.2757 10.7456 49.9217 11.2029 50.4495 10.8935L53.3319 9.21217Z" fill="#E3B063"/>
<path d="M68.6843 9.21217L71.3265 10.9003C71.8103 11.2096 72.4024 10.7523 72.2751 10.1739L71.5748 6.9995L73.9113 4.86081C74.3379 4.47073 74.1087 3.73094 73.5484 3.68386L70.4733 3.40812L69.27 0.40857C69.0535 -0.13619 68.315 -0.13619 68.0985 0.40857L66.8952 3.40139L63.8201 3.67713C63.2599 3.72421 63.0307 4.46401 63.4572 4.85408L65.7938 6.99277L65.0935 10.1672C64.9661 10.7456 65.5582 11.2029 66.0421 10.8935L68.6843 9.21217Z" fill="#8D8D8D"/>
</svg>
