<svg width="30" height="30" viewBox="0 0 30 30" fill="none" xmlns="http://www.w3.org/2000/svg">
<path d="M29 29L22.2443 22.2443M22.2443 22.2443C23.3999 21.0887 24.3166 19.7168 24.942 18.207C25.5674 16.6971 25.8892 15.0789 25.8892 13.4446C25.8892 11.8104 25.5674 10.1921 24.942 8.68227C24.3166 7.17242 23.3999 5.80054 22.2443 4.64495C21.0887 3.48936 19.7168 2.57269 18.207 1.94729C16.6971 1.32189 15.0789 1 13.4446 1C11.8104 1 10.1921 1.32189 8.68227 1.94729C7.17242 2.57269 5.80054 3.48936 4.64495 4.64495C2.31113 6.97876 1 10.1441 1 13.4446C1 16.7451 2.31113 19.9105 4.64495 22.2443C6.97876 24.5781 10.1441 25.8892 13.4446 25.8892C16.7451 25.8892 19.9105 24.5781 22.2443 22.2443Z" stroke="#D5D5D5" stroke-width="2" stroke-linecap="round" stroke-linejoin="round"/>
</svg>
