<svg width="199" height="40" viewBox="0 0 199 40" fill="none" xmlns="http://www.w3.org/2000/svg">
<path d="M3.378 26.798C2.314 26.798 1.544 26.63 1.068 26.294C0.592 25.958 0.312 25.594 0.228 25.202C0.116 24.81 0.06 24.516 0.06 24.32C0.0879998 23.956 0.256 23.662 0.564 23.438C0.844 23.214 1.166 23.102 1.53 23.102C1.754 23.102 1.95 23.158 2.118 23.27C2.286 23.354 2.37 23.55 2.37 23.858C2.37 24.138 2.272 24.334 2.076 24.446C1.88 24.558 1.67 24.614 1.446 24.614C1.25 24.614 1.082 24.586 0.942 24.53C0.774 24.474 0.69 24.446 0.69 24.446C0.69 25.202 0.97 25.706 1.53 25.958C2.09 26.21 2.72 26.336 3.42 26.336C4.512 26.336 5.632 26.028 6.78 25.412C7.956 24.796 9.16 23.984 10.392 22.976C11.624 21.94 12.884 20.792 14.172 19.532C15.488 18.244 16.832 16.956 18.204 15.668C19.688 14.268 21.158 12.882 22.614 11.51C24.098 10.11 25.526 8.85 26.898 7.73C28.27 6.61 29.544 5.714 30.72 5.042C31.896 4.37 32.946 4.034 33.87 4.034C34.178 4.034 34.304 4.09 34.248 4.202C34.22 4.314 33.996 4.398 33.576 4.454C32.596 4.622 31.518 5.07 30.342 5.798C29.194 6.498 27.976 7.408 26.688 8.528C25.4 9.62 24.07 10.824 22.698 12.14C21.354 13.428 19.982 14.73 18.582 16.046C17.294 17.278 15.992 18.524 14.676 19.784C13.388 21.044 12.1 22.206 10.812 23.27C9.552 24.334 8.292 25.188 7.032 25.832C5.8 26.476 4.582 26.798 3.378 26.798ZM16.314 24.908C16.146 24.964 15.95 25.006 15.726 25.034C15.53 25.034 15.474 24.964 15.558 24.824C15.642 24.684 15.796 24.446 16.02 24.11C16.272 23.746 16.496 23.312 16.692 22.808C16.916 22.304 17.028 21.786 17.028 21.254C17.028 20.554 16.902 19.756 16.65 18.86C16.426 17.936 16.048 17.04 15.516 16.172C15.012 15.304 14.326 14.59 13.458 14.03C12.618 13.442 11.582 13.148 10.35 13.148C9.538 13.148 8.838 13.344 8.25 13.736C7.69 14.128 7.256 14.604 6.948 15.164C6.668 15.696 6.528 16.214 6.528 16.718C6.528 17.81 6.85 18.846 7.494 19.826C8.166 20.806 9.174 21.604 10.518 22.22C11.862 22.808 13.528 23.102 15.516 23.102C17.7 23.102 19.66 22.724 21.396 21.968C23.132 21.212 24.588 20.232 25.764 19.028C26.94 17.824 27.766 16.564 28.242 15.248C28.382 14.828 28.494 14.688 28.578 14.828C28.69 14.94 28.746 15.052 28.746 15.164C28.746 16.116 28.424 17.082 27.78 18.062C27.136 19.042 26.226 19.952 25.05 20.792C23.874 21.604 22.516 22.262 20.976 22.766C19.436 23.27 17.756 23.522 15.936 23.522C14.06 23.522 12.324 23.256 10.728 22.724C9.16 22.192 7.886 21.408 6.906 20.372C5.954 19.336 5.478 18.09 5.478 16.634C5.478 15.654 5.884 14.758 6.696 13.946C7.536 13.106 8.754 12.686 10.35 12.686C11.694 12.686 12.814 12.994 13.71 13.61C14.634 14.226 15.376 14.982 15.936 15.878C16.496 16.774 16.902 17.67 17.154 18.566C17.406 19.462 17.532 20.204 17.532 20.792C17.532 21.436 17.448 22.08 17.28 22.724C17.112 23.34 16.93 23.858 16.734 24.278C16.566 24.67 16.426 24.88 16.314 24.908ZM13.836 26.714C13.864 26.686 14.144 26.35 14.676 25.706C15.208 25.062 15.908 24.208 16.776 23.144C17.644 22.08 18.624 20.89 19.716 19.574C20.808 18.23 21.942 16.858 23.118 15.458C24.294 14.058 25.442 12.7 26.562 11.384C27.71 10.04 28.76 8.836 29.712 7.772C30.692 6.68 31.504 5.812 32.148 5.168C32.82 4.524 33.254 4.188 33.45 4.16C33.59 4.104 33.716 4.104 33.828 4.16C33.94 4.216 33.912 4.314 33.744 4.454C33.632 4.538 33.24 5 32.568 5.84C31.896 6.652 31.042 7.73 30.006 9.074C28.998 10.39 27.892 11.846 26.688 13.442C25.512 15.01 24.336 16.578 23.16 18.146C21.984 19.686 20.906 21.114 19.926 22.43C18.974 23.718 18.19 24.754 17.574 25.538C16.986 26.322 16.678 26.714 16.65 26.714C16.538 26.686 16.342 26.658 16.062 26.63C15.81 26.602 15.558 26.588 15.306 26.588C15.054 26.588 14.76 26.602 14.424 26.63C14.116 26.686 13.92 26.714 13.836 26.714ZM28.3477 20.498C28.2357 20.61 28.1517 20.624 28.0957 20.54C28.0397 20.428 28.0257 20.316 28.0537 20.204C28.5297 19.728 28.9917 19.168 29.4397 18.524C29.9157 17.88 30.3077 17.278 30.6157 16.718C30.9517 16.158 31.1477 15.78 31.2037 15.584C31.2597 15.584 31.3437 15.542 31.4557 15.458C31.5957 15.374 31.7217 15.346 31.8337 15.374C31.8057 15.57 31.7637 15.752 31.7077 15.92C31.6797 16.088 31.7777 16.242 32.0017 16.382C32.2257 16.522 32.6877 16.662 33.3877 16.802C34.0877 16.942 35.1517 17.096 36.5797 17.264C36.7197 17.292 36.8177 17.348 36.8737 17.432C36.9577 17.488 36.9157 17.586 36.7477 17.726C36.2157 18.146 35.6277 18.678 34.9837 19.322C34.3397 19.966 33.7097 20.652 33.0937 21.38C32.5057 22.08 32.0157 22.766 31.6237 23.438C31.2597 24.11 31.0777 24.67 31.0777 25.118C31.0777 25.622 31.3017 25.874 31.7497 25.874C32.3097 25.874 32.9397 25.65 33.6397 25.202C34.3677 24.754 35.0957 24.208 35.8237 23.564C36.5517 22.892 37.2237 22.22 37.8397 21.548C38.4837 20.848 39.0157 20.274 39.4357 19.826L39.7717 20.078C39.3797 20.47 38.8757 21.016 38.2597 21.716C37.6437 22.416 36.9437 23.13 36.1597 23.858C35.4037 24.558 34.5917 25.16 33.7237 25.664C32.8557 26.14 31.9597 26.378 31.0357 26.378C30.5037 26.378 30.0277 26.252 29.6077 26C29.1877 25.776 28.9777 25.356 28.9777 24.74C28.9777 24.152 29.2297 23.536 29.7337 22.892C30.2377 22.248 30.8677 21.604 31.6237 20.96C32.3797 20.288 33.1637 19.658 33.9757 19.07C34.8157 18.454 35.5577 17.894 36.2017 17.39L36.4957 17.768C36.2157 17.656 35.7257 17.558 35.0257 17.474C34.3257 17.362 33.5977 17.222 32.8417 17.054C32.0857 16.858 31.4277 16.606 30.8677 16.298C30.3357 15.99 30.0697 15.57 30.0697 15.038C30.0697 14.758 30.1817 14.422 30.4057 14.03C30.6577 13.61 30.9937 13.4 31.4137 13.4C31.8057 13.4 32.0717 13.484 32.2117 13.652C32.3517 13.792 32.4217 13.988 32.4217 14.24C32.4217 14.408 32.2817 14.758 32.0017 15.29C31.7217 15.794 31.3717 16.396 30.9517 17.096C30.5317 17.768 30.0837 18.412 29.6077 19.028C29.1597 19.644 28.7397 20.134 28.3477 20.498ZM46.6469 15.29C48.0469 15.29 48.7469 15.962 48.7469 17.306C48.7469 18.342 48.5089 19.406 48.0329 20.498C47.5569 21.562 46.9129 22.542 46.1009 23.438C45.2889 24.306 44.4069 25.02 43.4549 25.58C42.5029 26.112 41.5369 26.378 40.5569 26.378C39.8009 26.378 39.1709 26.196 38.6669 25.832C38.1349 25.44 37.8689 24.81 37.8689 23.942C37.8689 23.13 38.1069 22.234 38.5829 21.254C39.0589 20.246 39.7029 19.294 40.5149 18.398C41.3549 17.502 42.2929 16.76 43.3289 16.172C44.3929 15.584 45.4989 15.29 46.6469 15.29ZM47.1089 15.878C46.6329 15.878 46.0729 16.088 45.4289 16.508C44.7849 16.928 44.1269 17.474 43.4549 18.146C42.7829 18.818 42.1529 19.546 41.5649 20.33C41.0049 21.086 40.5429 21.828 40.1789 22.556C39.8429 23.284 39.6749 23.9 39.6749 24.404C39.6749 24.964 39.8289 25.356 40.1369 25.58C40.4449 25.776 40.7949 25.874 41.1869 25.874C41.8309 25.874 42.5589 25.608 43.3709 25.076C44.1829 24.516 44.9669 23.816 45.7229 22.976C46.4789 22.136 47.0949 21.254 47.5709 20.33C48.0749 19.378 48.3269 18.51 48.3269 17.726C48.3269 16.998 48.2009 16.508 47.9489 16.256C47.6969 16.004 47.4169 15.878 47.1089 15.878ZM47.8649 20.204C48.0049 20.204 48.0609 20.26 48.0329 20.372C48.0329 20.456 47.9629 20.498 47.8229 20.498C47.7109 20.498 47.5429 20.652 47.3189 20.96C47.1229 21.24 46.9409 21.534 46.7729 21.842C46.6049 22.15 46.5209 22.318 46.5209 22.346C46.5209 22.99 46.7589 23.312 47.2349 23.312C47.6829 23.312 48.1869 23.102 48.7469 22.682C49.3349 22.262 49.8949 21.786 50.4269 21.254C50.9869 20.694 51.4349 20.204 51.7709 19.784L52.1069 20.078C51.7429 20.498 51.2809 21.002 50.7209 21.59C50.1609 22.15 49.5729 22.654 48.9569 23.102C48.3409 23.522 47.7669 23.732 47.2349 23.732C46.7869 23.732 46.4789 23.634 46.3109 23.438C46.1429 23.242 46.0589 22.892 46.0589 22.388C46.0589 21.716 46.2829 21.184 46.7309 20.792C47.2069 20.4 47.5849 20.204 47.8649 20.204ZM67.1406 26.378C66.5246 26.378 66.0346 26.252 65.6706 26C65.3066 25.748 65.1246 25.426 65.1246 25.034C65.1246 24.53 65.3206 23.97 65.7126 23.354C66.1046 22.71 66.5806 22.038 67.1406 21.338C67.7286 20.638 68.3026 19.966 68.8626 19.322C69.4506 18.65 69.9406 18.048 70.3326 17.516C70.7246 16.984 70.9206 16.55 70.9206 16.214C70.9206 15.99 70.8646 15.836 70.7526 15.752C70.6406 15.668 70.4446 15.626 70.1646 15.626C69.7446 15.626 69.1846 15.85 68.4846 16.298C67.8126 16.718 67.0566 17.306 66.2166 18.062C65.4046 18.79 64.5646 19.616 63.6966 20.54C62.8566 21.436 62.0446 22.36 61.2606 23.312C60.4766 24.264 59.8046 25.16 59.2446 26C58.9086 25.888 58.5306 25.846 58.1106 25.874C57.6906 25.902 57.2426 25.958 56.7666 26.042C57.4106 25.23 58.1386 24.334 58.9506 23.354C59.7906 22.346 60.5886 21.366 61.3446 20.414C62.1006 19.462 62.7306 18.608 63.2346 17.852C63.7386 17.068 63.9906 16.494 63.9906 16.13C63.9906 15.934 63.9066 15.808 63.7386 15.752C63.5986 15.668 63.3886 15.626 63.1086 15.626C62.5206 15.626 61.7646 15.976 60.8406 16.676C59.9166 17.376 58.9366 18.272 57.9006 19.364C56.8646 20.428 55.8426 21.562 54.8346 22.766C53.8546 23.942 52.9866 25.02 52.2306 26C51.9506 25.916 51.6146 25.874 51.2226 25.874C50.8306 25.846 50.3546 25.902 49.7946 26.042C50.8306 24.502 51.8526 23.046 52.8606 21.674C53.8966 20.274 54.7506 19.07 55.4226 18.062C56.1226 17.054 56.4726 16.382 56.4726 16.046C56.4726 15.962 56.4446 15.906 56.3886 15.878C56.3606 15.822 56.3046 15.794 56.2206 15.794C55.9406 15.794 55.5486 16.06 55.0446 16.592C54.5686 17.124 54.0646 17.726 53.5326 18.398C53.0006 19.07 52.5246 19.644 52.1046 20.12L51.7266 19.868C52.0066 19.56 52.3426 19.154 52.7346 18.65C53.1266 18.118 53.5466 17.6 53.9946 17.096C54.4706 16.564 54.9466 16.116 55.4226 15.752C55.8986 15.388 56.3606 15.206 56.8086 15.206C57.1446 15.206 57.4246 15.304 57.6486 15.5C57.9006 15.668 58.0266 15.892 58.0266 16.172C58.0266 16.536 57.9146 16.942 57.6906 17.39C57.4666 17.81 57.1586 18.3 56.7666 18.86C56.3746 19.392 55.9266 19.98 55.4226 20.624C54.9466 21.268 54.4426 21.982 53.9106 22.766L53.9946 22.934C54.5546 22.346 55.1286 21.702 55.7166 21.002C56.3326 20.302 56.9626 19.616 57.6066 18.944C58.2506 18.272 58.8946 17.656 59.5386 17.096C60.1826 16.536 60.8406 16.088 61.5126 15.752C62.1846 15.416 62.8426 15.248 63.4866 15.248C64.1586 15.248 64.6206 15.416 64.8726 15.752C65.1246 16.088 65.2506 16.41 65.2506 16.718C65.2506 17.166 65.1666 17.614 64.9986 18.062C64.8306 18.51 64.6206 18.944 64.3686 19.364C64.1166 19.756 63.8646 20.12 63.6126 20.456C63.3606 20.764 63.1366 21.016 62.9406 21.212C62.7446 21.408 62.6326 21.534 62.6046 21.59L62.3526 21.38C62.5486 21.184 62.8566 20.848 63.2766 20.372C63.6966 19.896 64.1866 19.378 64.7466 18.818C65.3346 18.23 65.9506 17.67 66.5946 17.138C67.2386 16.578 67.8826 16.13 68.5266 15.794C69.1706 15.43 69.7866 15.248 70.3746 15.248C71.0746 15.248 71.5506 15.43 71.8026 15.794C72.0826 16.13 72.2226 16.438 72.2226 16.718C72.2226 17.334 72.0266 18.02 71.6346 18.776C71.2426 19.504 70.7526 20.246 70.1646 21.002C69.5766 21.73 68.9886 22.416 68.4006 23.06C67.8126 23.704 67.3226 24.25 66.9306 24.698C66.5386 25.118 66.3426 25.384 66.3426 25.496C66.3426 25.748 66.6366 25.874 67.2246 25.874C67.9806 25.874 68.7366 25.636 69.4926 25.16C70.2766 24.684 71.0186 24.11 71.7186 23.438C72.4186 22.738 73.0486 22.052 73.6086 21.38C74.1966 20.68 74.6726 20.134 75.0366 19.742L75.3726 19.994C75.0366 20.358 74.5606 20.89 73.9446 21.59C73.3566 22.29 72.6846 23.018 71.9286 23.774C71.1726 24.502 70.3886 25.118 69.5766 25.622C68.7646 26.126 67.9526 26.378 67.1406 26.378ZM84.0564 18.65C83.9444 18.874 83.7764 19.07 83.5524 19.238C83.3564 19.406 83.2024 19.518 83.0904 19.574C83.0064 19.602 83.0344 19.518 83.1744 19.322C83.6784 18.706 84.0004 18.132 84.1404 17.6C84.3084 17.068 84.3084 16.648 84.1404 16.34C84.0004 16.004 83.7204 15.836 83.3004 15.836C82.7404 15.836 82.0824 16.06 81.3264 16.508C80.5704 16.956 79.7864 17.544 78.9744 18.272C78.1904 19 77.4484 19.784 76.7484 20.624C76.0764 21.436 75.5304 22.234 75.1104 23.018C74.6904 23.774 74.4804 24.432 74.4804 24.992C74.4804 25.412 74.5644 25.678 74.7324 25.79C74.9004 25.902 75.0684 25.958 75.2364 25.958C75.8804 25.958 76.6224 25.664 77.4624 25.076C78.3304 24.46 79.2124 23.69 80.1084 22.766C81.0044 21.842 81.8584 20.904 82.6704 19.952C83.4824 18.972 84.1824 18.09 84.7704 17.306C85.3864 16.522 85.8064 15.99 86.0304 15.71C86.3384 15.822 86.7024 15.864 87.1224 15.836C87.5704 15.808 87.9484 15.78 88.2564 15.752C88.2004 15.836 87.9064 16.186 87.3744 16.802C86.8704 17.418 86.2544 18.16 85.5264 19.028C84.8264 19.868 84.1124 20.736 83.3844 21.632C82.6844 22.528 82.0964 23.312 81.6204 23.984C81.1444 24.656 80.9064 25.104 80.9064 25.328C80.9064 25.608 80.9624 25.79 81.0744 25.874C81.2144 25.93 81.4244 25.958 81.7044 25.958C82.0404 25.93 82.5304 25.776 83.1744 25.496C83.8184 25.188 84.6444 24.6 85.6524 23.732C86.6604 22.864 87.8784 21.576 89.3064 19.868C89.3064 19.868 89.3624 19.91 89.4744 19.994C89.6144 20.078 89.6844 20.12 89.6844 20.12C88.0044 22.08 86.4504 23.62 85.0224 24.74C83.5944 25.832 82.2924 26.378 81.1164 26.378C80.5004 26.378 80.0804 26.28 79.8564 26.084C79.6604 25.888 79.5624 25.608 79.5624 25.244C79.5624 24.964 79.6744 24.628 79.8984 24.236C80.1504 23.816 80.4304 23.41 80.7384 23.018C81.0464 22.626 81.2984 22.318 81.4944 22.094C81.4944 22.094 81.4664 22.08 81.4104 22.052C81.3544 22.024 81.3264 22.01 81.3264 22.01C80.6824 22.794 79.9964 23.522 79.2684 24.194C78.5404 24.866 77.8124 25.398 77.0844 25.79C76.3844 26.182 75.6984 26.378 75.0264 26.378C74.3264 26.378 73.8364 26.21 73.5564 25.874C73.2764 25.51 73.1364 24.964 73.1364 24.236C73.1364 23.536 73.3604 22.696 73.8084 21.716C74.2564 20.708 74.9004 19.728 75.7404 18.776C76.5804 17.796 77.5884 16.984 78.7644 16.34C79.9684 15.696 81.3124 15.374 82.7964 15.374C83.5244 15.374 84.0284 15.514 84.3084 15.794C84.5884 16.046 84.7144 16.354 84.6864 16.718C84.6584 17.082 84.5744 17.446 84.4344 17.81C84.2944 18.174 84.1684 18.454 84.0564 18.65ZM104.619 26.378C103.835 26.378 103.107 26.28 102.435 26.084C101.763 25.916 101.427 25.622 101.427 25.202C101.427 24.922 101.581 24.67 101.889 24.446C102.225 24.222 102.617 24.054 103.065 23.942C103.541 23.802 103.961 23.732 104.325 23.732C105.529 23.732 106.691 23.914 107.811 24.278C108.931 24.614 110.079 24.964 111.255 25.328C112.459 25.664 113.747 25.832 115.119 25.832C116.799 25.832 118.409 25.482 119.949 24.782C121.489 24.082 122.861 23.13 124.065 21.926C125.269 20.722 126.207 19.364 126.879 17.852C127.579 16.312 127.929 14.716 127.929 13.064C127.929 11.3 127.621 9.76 127.005 8.444C126.417 7.128 125.465 6.106 124.149 5.378C122.861 4.65 121.181 4.286 119.109 4.286C117.541 4.286 116.015 4.608 114.531 5.252C113.047 5.868 111.717 6.68 110.541 7.688C109.365 8.668 108.427 9.732 107.727 10.88C107.027 12.028 106.677 13.106 106.677 14.114C106.677 14.646 106.887 15.192 107.307 15.752C107.727 16.312 108.455 16.592 109.491 16.592C110.471 16.592 111.535 16.34 112.683 15.836C113.831 15.304 114.923 14.604 115.959 13.736C117.023 12.84 117.933 11.846 118.689 10.754C119.445 9.634 119.907 8.486 120.075 7.31C120.131 6.946 120.215 6.778 120.327 6.806C120.439 6.834 120.495 7.002 120.495 7.31C120.495 8.514 120.187 9.704 119.571 10.88C118.955 12.028 118.143 13.064 117.135 13.988C116.127 14.912 115.007 15.654 113.775 16.214C112.571 16.774 111.353 17.054 110.121 17.054C109.029 17.054 108.161 16.872 107.517 16.508C106.873 16.144 106.411 15.696 106.131 15.164C105.851 14.604 105.711 14.058 105.711 13.526C105.711 12.462 106.033 11.37 106.677 10.25C107.349 9.102 108.273 8.052 109.449 7.1C110.653 6.148 112.053 5.378 113.649 4.79C115.273 4.202 117.023 3.908 118.899 3.908C120.635 3.908 122.133 4.146 123.393 4.622C124.653 5.07 125.689 5.7 126.501 6.512C127.313 7.296 127.915 8.22 128.307 9.284C128.727 10.32 128.937 11.426 128.937 12.602C128.937 14.562 128.559 16.382 127.803 18.062C127.075 19.714 126.067 21.156 124.779 22.388C123.491 23.62 122.021 24.586 120.369 25.286C118.717 25.958 116.995 26.294 115.203 26.294C113.887 26.294 112.655 26.14 111.507 25.832C110.359 25.524 109.239 25.23 108.147 24.95C107.083 24.642 105.949 24.488 104.745 24.488C104.493 24.488 104.129 24.502 103.653 24.53C103.205 24.558 102.799 24.628 102.435 24.74C102.071 24.824 101.889 24.978 101.889 25.202C101.889 25.398 102.057 25.552 102.393 25.664C102.729 25.776 103.121 25.846 103.569 25.874C104.017 25.902 104.381 25.916 104.661 25.916C105.949 25.916 107.181 25.678 108.357 25.202C109.533 24.698 110.667 24.012 111.759 23.144C112.851 22.276 113.887 21.296 114.867 20.204C115.875 19.084 116.841 17.908 117.765 16.676C118.941 15.08 120.201 13.568 121.545 12.14C122.889 10.712 124.261 9.452 125.661 8.36C127.061 7.24 128.433 6.372 129.777 5.756C131.121 5.112 132.381 4.79 133.557 4.79C133.921 4.79 134.061 4.86 133.977 5C133.893 5.112 133.739 5.168 133.515 5.168C132.563 5.168 131.541 5.49 130.449 6.134C129.357 6.778 128.237 7.646 127.089 8.738C125.969 9.83 124.891 11.034 123.855 12.35C122.819 13.666 121.881 14.996 121.041 16.34C120.341 17.46 119.473 18.608 118.437 19.784C117.401 20.96 116.197 22.052 114.825 23.06C113.453 24.04 111.913 24.838 110.205 25.454C108.497 26.07 106.635 26.378 104.619 26.378ZM132.615 26.378C131.299 26.378 130.431 26.084 130.011 25.496C129.591 24.88 129.381 24.236 129.381 23.564C129.381 22.416 129.675 21.352 130.263 20.372C130.851 19.364 131.607 18.468 132.531 17.684C133.455 16.9 134.407 16.298 135.387 15.878C136.395 15.43 137.291 15.206 138.075 15.206C138.635 15.206 139.083 15.29 139.419 15.458C139.755 15.598 139.923 15.906 139.923 16.382C139.923 16.83 139.657 17.306 139.125 17.81C138.593 18.314 137.921 18.804 137.109 19.28C136.297 19.728 135.443 20.148 134.547 20.54C133.679 20.904 132.881 21.198 132.153 21.422C131.425 21.646 130.893 21.758 130.557 21.758C130.557 21.758 130.557 21.688 130.557 21.548C130.557 21.38 130.557 21.296 130.557 21.296C130.809 21.324 131.243 21.24 131.859 21.044C132.503 20.848 133.217 20.596 134.001 20.288C134.785 19.952 135.541 19.574 136.269 19.154C137.025 18.734 137.641 18.286 138.117 17.81C138.621 17.334 138.873 16.872 138.873 16.424C138.873 16.2 138.803 16.004 138.663 15.836C138.551 15.668 138.341 15.584 138.033 15.584C137.585 15.584 137.039 15.808 136.395 16.256C135.779 16.676 135.149 17.236 134.505 17.936C133.861 18.636 133.259 19.378 132.699 20.162C132.139 20.946 131.677 21.702 131.313 22.43C130.977 23.13 130.809 23.718 130.809 24.194C130.809 24.754 130.977 25.174 131.313 25.454C131.649 25.734 132.139 25.874 132.783 25.874C133.903 25.874 134.953 25.608 135.933 25.076C136.941 24.516 137.851 23.872 138.663 23.144C139.475 22.388 140.161 21.688 140.721 21.044C141.281 20.372 141.659 19.938 141.855 19.742C141.855 19.742 141.897 19.784 141.981 19.868C142.093 19.952 142.149 19.994 142.149 19.994C141.953 20.218 141.575 20.666 141.015 21.338C140.455 22.01 139.755 22.738 138.915 23.522C138.075 24.306 137.123 24.978 136.059 25.538C134.995 26.098 133.847 26.378 132.615 26.378ZM155.196 0.548C155.504 0.603999 155.882 0.631999 156.33 0.631999C156.806 0.631999 157.184 0.603999 157.464 0.548L142.848 20.918C142.4 21.59 141.966 22.22 141.546 22.808C141.126 23.396 140.79 23.914 140.538 24.362C140.258 24.782 140.118 25.118 140.118 25.37C140.118 25.566 140.202 25.706 140.37 25.79C140.51 25.874 140.72 25.916 141 25.916C141.644 25.916 142.358 25.692 143.142 25.244C143.926 24.768 144.696 24.18 145.452 23.48C146.236 22.78 146.95 22.094 147.594 21.422C148.266 20.75 148.798 20.204 149.19 19.784L149.484 20.036C149.12 20.428 148.616 20.974 147.972 21.674C147.328 22.374 146.586 23.088 145.746 23.816C144.934 24.516 144.08 25.118 143.184 25.622C142.316 26.126 141.462 26.378 140.622 26.378C140.174 26.378 139.796 26.252 139.488 26C139.152 25.748 138.984 25.384 138.984 24.908C138.984 24.6 139.096 24.208 139.32 23.732C139.544 23.256 139.824 22.766 140.16 22.262C140.468 21.73 140.776 21.254 141.084 20.834C141.364 20.386 141.588 20.05 141.756 19.826L155.196 0.548ZM148.299 26.378C147.907 26.378 147.473 26.266 146.997 26.042C146.493 25.846 146.241 25.51 146.241 25.034C146.241 24.446 146.507 23.704 147.039 22.808C147.571 21.912 148.229 20.988 149.013 20.036C149.769 19.084 150.511 18.188 151.239 17.348C151.967 16.508 152.513 15.85 152.877 15.374C153.185 15.402 153.549 15.416 153.969 15.416C154.417 15.416 154.809 15.402 155.145 15.374C154.753 15.85 154.235 16.452 153.591 17.18C152.975 17.908 152.317 18.692 151.617 19.532C150.945 20.344 150.287 21.142 149.643 21.926C149.027 22.71 148.523 23.41 148.131 24.026C147.739 24.642 147.543 25.09 147.543 25.37C147.543 25.566 147.627 25.706 147.795 25.79C147.963 25.874 148.243 25.916 148.635 25.916C149.307 25.916 150.049 25.664 150.861 25.16C151.701 24.628 152.513 23.998 153.297 23.27C154.081 22.542 154.781 21.856 155.397 21.212C156.013 20.54 156.447 20.05 156.699 19.742L157.035 20.036C156.783 20.316 156.349 20.806 155.733 21.506C155.145 22.178 154.431 22.892 153.591 23.648C152.779 24.404 151.911 25.048 150.987 25.58C150.091 26.112 149.195 26.378 148.299 26.378ZM156.699 12.182C156.363 12.182 156.111 12.084 155.943 11.888C155.775 11.664 155.691 11.412 155.691 11.132C155.691 10.824 155.859 10.502 156.195 10.166C156.531 9.83 156.881 9.662 157.245 9.662C157.637 9.662 157.917 9.774 158.085 9.998C158.253 10.194 158.337 10.39 158.337 10.586C158.337 11.006 158.169 11.384 157.833 11.72C157.497 12.028 157.119 12.182 156.699 12.182ZM164.541 15.29C165.381 15.29 165.955 15.416 166.263 15.668C166.599 15.92 166.767 16.256 166.767 16.676C166.767 17.068 166.669 17.474 166.473 17.894C166.277 18.286 166.067 18.65 165.843 18.986C165.647 19.322 165.521 19.546 165.465 19.658C165.297 19.938 165.101 20.12 164.877 20.204C164.653 20.26 164.723 20.036 165.087 19.532C165.563 18.916 165.913 18.328 166.137 17.768C166.361 17.18 166.375 16.704 166.179 16.34C166.011 15.948 165.535 15.752 164.751 15.752C164.219 15.752 163.589 15.99 162.861 16.466C162.161 16.914 161.433 17.516 160.677 18.272C159.921 19 159.207 19.798 158.535 20.666C157.891 21.506 157.359 22.318 156.939 23.102C156.547 23.858 156.351 24.502 156.351 25.034C156.351 25.426 156.435 25.664 156.603 25.748C156.771 25.832 156.981 25.874 157.233 25.874C157.877 25.874 158.619 25.594 159.459 25.034C160.299 24.446 161.167 23.704 162.063 22.808C162.959 21.912 163.813 20.988 164.625 20.036C165.465 19.056 166.193 18.174 166.809 17.39C167.425 16.578 167.859 15.99 168.111 15.626C168.419 15.71 168.727 15.766 169.035 15.794C169.371 15.794 169.805 15.752 170.337 15.668C168.489 17.796 166.767 19.966 165.171 22.178C163.575 24.39 162.049 26.504 160.593 28.52C159.137 30.536 157.709 32.328 156.309 33.896C154.881 35.492 153.439 36.752 151.983 37.676C150.527 38.6 149.001 39.062 147.405 39.062C146.873 39.062 146.453 38.95 146.145 38.726C145.809 38.502 145.641 38.208 145.641 37.844C145.641 37.228 145.963 36.584 146.607 35.912C147.251 35.268 148.091 34.638 149.127 34.022C150.163 33.406 151.283 32.804 152.487 32.216C153.663 31.656 154.811 31.152 155.931 30.704C157.023 30.256 157.947 29.878 158.703 29.57C160.019 29.038 161.335 28.366 162.651 27.554C163.967 26.742 165.199 25.86 166.347 24.908C167.523 23.956 168.559 23.032 169.455 22.136C170.379 21.24 171.093 20.442 171.597 19.742C171.597 19.742 171.639 19.798 171.723 19.91C171.835 20.022 171.891 20.078 171.891 20.078C171.191 21.002 170.225 22.066 168.993 23.27C167.761 24.446 166.291 25.622 164.583 26.798C162.875 27.974 160.957 29.01 158.829 29.906C158.101 30.214 157.205 30.592 156.141 31.04C155.077 31.488 153.971 31.978 152.823 32.51C151.675 33.07 150.597 33.644 149.589 34.232C148.581 34.848 147.769 35.45 147.153 36.038C146.509 36.654 146.187 37.242 146.187 37.802C146.187 37.998 146.285 38.194 146.481 38.39C146.677 38.586 146.985 38.684 147.405 38.684C148.189 38.684 149.057 38.348 150.009 37.676C150.961 37.004 151.969 36.122 153.033 35.03C154.069 33.938 155.119 32.748 156.183 31.46C157.219 30.2 158.213 28.94 159.165 27.68C160.117 26.42 160.971 25.286 161.727 24.278C162.511 23.27 163.141 22.514 163.617 22.01C163.617 22.01 163.589 21.996 163.533 21.968C163.505 21.94 163.491 21.926 163.491 21.926C163.379 22.066 163.099 22.374 162.651 22.85C162.231 23.298 161.699 23.802 161.055 24.362C160.411 24.894 159.725 25.37 158.997 25.79C158.269 26.182 157.555 26.378 156.855 26.378C156.127 26.378 155.637 26.168 155.385 25.748C155.105 25.328 154.965 24.852 154.965 24.32C154.965 23.424 155.217 22.458 155.721 21.422C156.197 20.386 156.869 19.406 157.737 18.482C158.633 17.558 159.655 16.802 160.803 16.214C161.979 15.598 163.225 15.29 164.541 15.29ZM184.975 0.548C185.311 0.603999 185.661 0.645998 186.025 0.673998C186.417 0.673998 186.809 0.631999 187.201 0.548C187.173 0.575999 186.935 0.911999 186.487 1.556C186.039 2.172 185.423 3.012 184.639 4.076C183.883 5.112 183.029 6.288 182.077 7.604C181.153 8.92 180.187 10.278 179.179 11.678C178.199 13.05 177.233 14.394 176.281 15.71C175.357 16.998 174.503 18.174 173.719 19.238C172.963 20.302 172.361 21.156 171.913 21.8C171.465 22.444 171.227 22.78 171.199 22.808C171.199 22.808 171.213 22.836 171.241 22.892C171.269 22.92 171.283 22.948 171.283 22.976C171.983 22.22 172.739 21.394 173.551 20.498C174.363 19.602 175.189 18.762 176.029 17.978C176.869 17.166 177.695 16.508 178.507 16.004C179.347 15.5 180.117 15.248 180.817 15.248C181.713 15.248 182.287 15.458 182.539 15.878C182.819 16.27 182.959 16.62 182.959 16.928C182.959 17.516 182.763 18.16 182.371 18.86C181.979 19.56 181.489 20.26 180.901 20.96C180.341 21.66 179.767 22.318 179.179 22.934C178.619 23.522 178.143 24.04 177.751 24.488C177.359 24.936 177.163 25.258 177.163 25.454C177.163 25.678 177.331 25.818 177.667 25.874C178.031 25.902 178.325 25.916 178.549 25.916C179.193 25.916 179.893 25.678 180.649 25.202C181.405 24.726 182.147 24.138 182.875 23.438C183.603 22.738 184.261 22.052 184.849 21.38C185.437 20.708 185.885 20.176 186.193 19.784L186.529 20.036C186.249 20.372 185.829 20.89 185.269 21.59C184.709 22.262 184.037 22.976 183.253 23.732C182.497 24.46 181.671 25.09 180.775 25.622C179.879 26.126 178.941 26.378 177.961 26.378C177.597 26.378 177.177 26.28 176.701 26.084C176.225 25.916 175.987 25.538 175.987 24.95C175.987 24.474 176.169 23.928 176.533 23.312C176.925 22.668 177.401 22.01 177.961 21.338C178.521 20.638 179.081 19.966 179.641 19.322C180.229 18.678 180.705 18.09 181.069 17.558C181.461 16.998 181.657 16.55 181.657 16.214C181.657 15.85 181.391 15.668 180.859 15.668C180.187 15.668 179.375 15.99 178.423 16.634C177.499 17.25 176.519 18.076 175.483 19.112C174.447 20.148 173.411 21.268 172.375 22.472C171.367 23.676 170.429 24.866 169.561 26.042C169.197 25.986 168.791 25.958 168.343 25.958C167.895 25.958 167.475 26.014 167.083 26.126C167.083 26.126 167.335 25.776 167.839 25.076C168.343 24.348 169.029 23.382 169.897 22.178C170.737 20.946 171.689 19.574 172.753 18.062C173.817 16.522 174.909 14.954 176.029 13.358C177.149 11.734 178.241 10.166 179.305 8.654C180.369 7.114 181.321 5.742 182.161 4.538C183.029 3.306 183.715 2.34 184.219 1.64C184.723 0.911999 184.975 0.548 184.975 0.548ZM194.536 7.856C194.788 7.968 195.152 8.024 195.628 8.024C196.132 7.996 196.524 7.954 196.804 7.898C195.908 9.13 194.914 10.488 193.822 11.972C192.73 13.456 191.624 14.94 190.504 16.424C189.412 17.88 188.39 19.252 187.438 20.54C186.514 21.8 185.772 22.864 185.212 23.732C184.652 24.6 184.372 25.146 184.372 25.37C184.372 25.538 184.47 25.664 184.666 25.748C184.834 25.832 185.058 25.874 185.338 25.874C185.954 25.874 186.626 25.664 187.354 25.244C188.11 24.796 188.852 24.25 189.58 23.606C190.336 22.934 191.022 22.262 191.638 21.59C192.282 20.89 192.786 20.288 193.15 19.784L193.486 20.036C193.094 20.54 192.576 21.142 191.932 21.842C191.288 22.542 190.574 23.242 189.79 23.942C189.006 24.642 188.194 25.23 187.354 25.706C186.542 26.154 185.758 26.378 185.002 26.378C184.47 26.378 184.05 26.266 183.742 26.042C183.406 25.846 183.238 25.496 183.238 24.992C183.238 24.544 183.504 23.858 184.036 22.934C184.568 21.982 185.254 20.89 186.094 19.658C186.962 18.426 187.9 17.124 188.908 15.752C189.916 14.352 190.91 12.98 191.89 11.636C192.898 10.264 193.78 9.004 194.536 7.856ZM189.916 12.56C189.636 12.56 189.496 12.476 189.496 12.308C189.496 12.168 189.636 12.098 189.916 12.098H197.896C197.98 12.098 198.064 12.112 198.148 12.14C198.26 12.168 198.316 12.224 198.316 12.308C198.316 12.42 198.26 12.49 198.148 12.518C198.064 12.546 197.98 12.56 197.896 12.56H189.916Z" fill="white"/>
</svg>
