<svg width="39" height="34" viewBox="0 0 39 34" fill="none" xmlns="http://www.w3.org/2000/svg">
<path d="M20.2196 17.707V27.6245C20.2196 27.8124 20.1435 27.9925 20.0081 28.1254C19.8726 28.2582 19.6889 28.3329 19.4973 28.3329C19.3057 28.3329 19.122 28.2582 18.9865 28.1254C18.851 27.9925 18.7749 27.8124 18.7749 27.6245V17.707C18.7749 17.5191 18.851 17.3389 18.9865 17.2061C19.122 17.0732 19.3057 16.9986 19.4973 16.9986C19.6889 16.9986 19.8726 17.0732 20.0081 17.2061C20.1435 17.3389 20.2196 17.5191 20.2196 17.707ZM38.9809 13.7382L36.4725 32.1564C36.4031 32.666 36.1476 33.1336 35.7534 33.4726C35.3593 33.8116 34.8532 33.999 34.329 34H4.66563C4.14138 33.999 3.63529 33.8116 3.24114 33.4726C2.84699 33.1336 2.59152 32.666 2.52205 32.1564L0.0191082 13.7382C-0.0217446 13.4385 0.00308164 13.1338 0.0919284 12.8442C0.180775 12.5547 0.331597 12.2871 0.53432 12.0593C0.737043 11.8315 0.987 11.6487 1.2675 11.5232C1.54799 11.3977 1.85257 11.3323 2.16088 11.3315H9.05571L18.9555 0.239835C19.0233 0.164457 19.1067 0.104088 19.2001 0.0627369C19.2935 0.021386 19.3948 0 19.4973 0C19.5998 0 19.7011 0.021386 19.7945 0.0627369C19.8879 0.104088 19.9713 0.164457 20.0391 0.239835L29.9389 11.3315H36.8337C37.1425 11.3316 37.4477 11.3964 37.7288 11.5216C38.01 11.6467 38.2606 11.8294 38.4639 12.0573C38.6672 12.2852 38.8185 12.5531 38.9077 12.843C38.9968 13.1329 39.0218 13.4381 38.9809 13.7382ZM10.9754 11.3315H28.0192L19.4973 1.78059L10.9754 11.3315ZM37.3755 12.9891C37.3082 12.913 37.225 12.8521 37.1315 12.8105C37.038 12.7689 36.9364 12.7477 36.8337 12.7483H2.16088C2.05757 12.7474 1.95528 12.7683 1.8609 12.8095C1.76653 12.8507 1.68226 12.9113 1.6138 12.9872C1.54533 13.063 1.49426 13.1524 1.46402 13.2493C1.43379 13.3462 1.42509 13.4483 1.43853 13.5487L3.94147 31.9669C3.9648 32.1381 4.05109 32.295 4.18411 32.4082C4.31713 32.5214 4.48773 32.583 4.66382 32.5814H34.329C34.5051 32.583 34.6756 32.5214 34.8087 32.4082C34.9417 32.295 35.028 32.1381 35.0513 31.9669L37.5561 13.5505C37.5695 13.4497 37.5603 13.3472 37.5291 13.2502C37.4979 13.1532 37.4455 13.0641 37.3755 12.9891ZM29.1046 16.9986C29.0102 16.9893 28.9148 16.9983 28.824 17.0251C28.7332 17.052 28.6486 17.0961 28.5752 17.155C28.5017 17.2138 28.4408 17.2863 28.3959 17.3683C28.351 17.4502 28.3231 17.5401 28.3136 17.6326L27.3023 27.5501C27.2918 27.6432 27.3002 27.7374 27.3271 27.8273C27.354 27.9172 27.3988 28.001 27.4589 28.0738C27.5191 28.1466 27.5933 28.207 27.6774 28.2515C27.7615 28.2959 27.8537 28.3236 27.9488 28.3329H28.0228C28.2025 28.3338 28.3761 28.2689 28.5097 28.151C28.6432 28.0331 28.7272 27.8707 28.7452 27.6953L29.7565 17.7778C29.7664 17.6846 29.7574 17.5903 29.73 17.5005C29.7025 17.4107 29.6571 17.3271 29.5965 17.2547C29.5359 17.1822 29.4612 17.1222 29.3767 17.0783C29.2923 17.0343 29.1998 17.0072 29.1046 16.9986ZM9.89003 16.9986C9.79564 17.0079 9.70405 17.0353 9.62048 17.0794C9.5369 17.1234 9.46299 17.1831 9.40296 17.2551C9.34293 17.3272 9.29795 17.4101 9.27059 17.4992C9.24324 17.5882 9.23404 17.6817 9.24353 17.7743L10.2548 27.6918C10.2728 27.8671 10.3568 28.0296 10.4903 28.1475C10.6239 28.2654 10.7975 28.3302 10.9772 28.3293H11.0512C11.1456 28.32 11.2372 28.2926 11.3208 28.2486C11.4043 28.2046 11.4782 28.1448 11.5383 28.0728C11.5983 28.0008 11.6433 27.9178 11.6706 27.8288C11.698 27.7397 11.7072 27.6462 11.6977 27.5536L10.6864 17.6362C10.6774 17.5428 10.6496 17.4521 10.6045 17.3694C10.5595 17.2866 10.4982 17.2135 10.4241 17.1542C10.35 17.0949 10.2646 17.0506 10.173 17.0239C10.0813 16.9972 9.98512 16.9886 9.89003 16.9986Z" fill="black"/>
</svg>
