<svg width="14" height="19" viewBox="0 0 14 19" fill="none" xmlns="http://www.w3.org/2000/svg">
<path d="M6.88491 1C3.63595 1 1 3.50885 1 6.59884C1 10.1543 4.92327 15.7887 6.36385 17.7348C6.42365 17.8169 6.50202 17.8838 6.59257 17.9299C6.68313 17.976 6.7833 18 6.88491 18C6.98652 18 7.08669 17.976 7.17724 17.9299C7.2678 17.8838 7.34617 17.8169 7.40597 17.7348C8.84654 15.7895 12.7698 10.1572 12.7698 6.59884C12.7698 3.50885 10.1339 1 6.88491 1Z" stroke="black" stroke-width="1.7" stroke-linecap="round" stroke-linejoin="round"/>
<path d="M6.88449 8.84649C7.96787 8.84649 8.84612 7.96824 8.84612 6.88485C8.84612 5.80147 7.96787 4.92322 6.88449 4.92322C5.80111 4.92322 4.92285 5.80147 4.92285 6.88485C4.92285 7.96824 5.80111 8.84649 6.88449 8.84649Z" stroke="black" stroke-width="1.7" stroke-linecap="round" stroke-linejoin="round"/>
</svg>
