<svg width="36" height="31" viewBox="0 0 36 31" fill="none" xmlns="http://www.w3.org/2000/svg">
<path d="M26.3333 0C22.76 0 19.68 1.71679 18 4.56071C16.32 1.71679 13.24 0 9.66667 0C7.10386 0.00312102 4.64689 1.03364 2.83471 2.86552C1.02253 4.6974 0.00308746 7.18107 0 9.77174C0 14.5885 3 19.6227 8.9 24.7309C11.6242 27.0743 14.5656 29.1466 17.6833 30.9191C17.7806 30.9722 17.8894 31 18 31C18.1106 31 18.2194 30.9722 18.3167 30.9191C21.4344 29.1466 24.3758 27.0743 27.1 24.7309C33 19.6227 36 14.5885 36 9.77174C35.9969 7.18107 34.9775 4.6974 33.1653 2.86552C31.3531 1.03364 28.8961 0.00312102 26.3333 0ZM18 29.5544C15.6667 28.2134 1.33333 19.5553 1.33333 9.77174C1.33598 7.5384 2.2148 5.3973 3.77703 3.81809C5.33926 2.23888 7.45734 1.3505 9.66667 1.34783C13.185 1.34783 16.1417 3.25331 17.3833 6.31962C17.4336 6.44322 17.519 6.54894 17.6288 6.62334C17.7386 6.69774 17.8678 6.73747 18 6.73747C18.1322 6.73747 18.2614 6.69774 18.3712 6.62334C18.481 6.54894 18.5664 6.44322 18.6167 6.31962C19.8583 3.25331 22.815 1.34783 26.3333 1.34783C28.5427 1.3505 30.6607 2.23888 32.223 3.81809C33.7852 5.3973 34.664 7.5384 34.6667 9.77174C34.6667 19.5435 20.3333 28.2134 18 29.5544Z" fill="black"/>
</svg>
