<svg width="30" height="31" viewBox="0 0 30 31" fill="none" xmlns="http://www.w3.org/2000/svg">
<path d="M28 29L21.7268 22.4856M21.7268 22.4856C22.7999 21.3713 23.6511 20.0484 24.2318 18.5924C24.8125 17.1365 25.1114 15.5761 25.1114 14.0002C25.1114 12.4243 24.8125 10.8638 24.2318 9.4079C23.6511 7.95198 22.7999 6.62909 21.7268 5.51477C20.6538 4.40045 19.3799 3.51652 17.9779 2.91346C16.5759 2.31039 15.0732 2 13.5557 2C12.0382 2 10.5355 2.31039 9.13354 2.91346C7.73153 3.51652 6.45764 4.40045 5.38459 5.51477C3.21747 7.76524 2 10.8175 2 14.0002C2 17.1828 3.21747 20.2351 5.38459 22.4856C7.55171 24.736 10.491 26.0003 13.5557 26.0003C16.6205 26.0003 19.5597 24.736 21.7268 22.4856Z" stroke="#A9A9A9" stroke-width="4" stroke-linecap="round" stroke-linejoin="round"/>
</svg>
