<svg width="36" height="36" viewBox="0 0 36 36" fill="none" xmlns="http://www.w3.org/2000/svg">
<path d="M33.474 2.526C30.948 0 26.8815 0 18.75 0H17.25C9.1185 0 5.052 0 2.526 2.526C0 5.052 0 9.1185 0 17.25V18.75C0 26.8815 0 30.9465 2.526 33.474C5.052 36.0015 9.1185 36 17.25 36H18.75C26.8815 36 30.9465 36 33.474 33.474C36 30.948 36 26.8815 36 18.75V17.25C36 9.1185 36 5.052 33.474 2.526ZM29.2545 25.5H26.6295C25.629 25.5 25.335 24.702 23.5545 22.9215C21.996 21.42 21.3285 21.225 20.94 21.225C20.4105 21.225 20.253 21.375 20.253 22.125V24.4785C20.253 25.1235 20.0475 25.5 18.378 25.5C15.597 25.5 12.54 23.811 10.3695 20.697C7.1145 16.1355 6.225 12.687 6.225 11.9925C6.225 11.6025 6.375 11.25 7.125 11.25H9.7515C10.422 11.25 10.674 11.544 10.926 12.27C12.21 16.0095 14.376 19.278 15.2655 19.278C15.5985 19.278 15.7515 19.1235 15.7515 18.2775V14.412C15.654 12.633 14.7075 12.486 14.7075 11.853C14.7075 11.5605 14.958 11.25 15.375 11.25H19.5015C20.058 11.25 20.2515 11.547 20.2515 12.2145V17.415C20.2515 17.97 20.493 18.165 20.6595 18.165C20.994 18.165 21.2715 17.97 21.8835 17.358C23.775 15.2445 25.11 11.991 25.11 11.991C25.278 11.601 25.584 11.2485 26.253 11.2485H28.878C29.6715 11.2485 29.8395 11.6565 29.6715 12.213C29.337 13.743 26.139 18.2475 26.139 18.2475C25.86 18.693 25.749 18.915 26.139 19.416C26.418 19.806 27.3345 20.5845 27.9465 21.3075C29.0745 22.5765 29.925 23.646 30.162 24.384C30.381 25.125 30.0045 25.5 29.2545 25.5Z" fill="white"/>
</svg>
